<?xml version="1.0" standalone="no"?>
<!DOCTYPE svg PUBLIC "-//W3C//DTD SVG 20010904//EN"
 "http://www.w3.org/TR/2001/REC-SVG-20010904/DTD/svg10.dtd">
<svg version="1.0" xmlns="http://www.w3.org/2000/svg"
 width="588.000000pt" height="588.000000pt" viewBox="0 0 588.000000 588.000000"
 preserveAspectRatio="xMidYMid meet">
<metadata>
Created by potrace 1.14, written by Peter Selinger 2001-2017
</metadata>
<g transform="translate(0.000000,588.000000) scale(0.100000,-0.100000)"
fill="#000000" stroke="none">
<path d="M2762 5870 c-854 -57 -1618 -462 -2149 -1140 -152 -195 -344 -543
-432 -787 -116 -320 -174 -655 -173 -1008 1 -478 103 -903 319 -1328 291 -570
733 -1007 1308 -1292 370 -184 742 -282 1153 -304 504 -27 998 76 1457 304
575 285 1017 722 1308 1292 217 428 319 851 319 1333 0 473 -92 868 -302 1295
-366 746 -992 1274 -1800 1518 -307 93 -692 138 -1008 117z m230 -1336 l3
-357 139 -63 c76 -35 141 -65 143 -68 2 -2 -7 -29 -21 -59 l-25 -56 -118 54
-118 55 -3 -162 -3 -162 261 -261 c221 -221 260 -265 260 -290 0 -25 -37 -66
-240 -270 l-240 -240 255 -255 255 -255 -45 -45 -45 -45 -230 230 -230 230 0
-195 0 -195 274 -274 275 -275 -31 -39 c-17 -21 -38 -41 -46 -44 -9 -4 -94 74
-243 223 l-229 229 -2 -480 -3 -480 -60 0 -60 0 -5 469 -5 469 -207 -213 -207
-213 -43 39 c-24 21 -43 42 -43 45 0 4 114 124 253 267 l252 260 0 188 0 189
-215 -215 -215 -215 -45 45 -45 45 255 255 255 255 -240 240 c-203 204 -240
245 -240 270 0 25 38 67 245 275 l245 246 -2 208 -3 209 -139 63 c-76 35 -141
66 -144 68 -2 3 7 30 21 60 l26 55 118 -54 118 -55 3 325 2 325 65 0 65 0 2
-356z"/>
<path d="M2990 3163 l0 -368 185 185 185 185 -182 182 c-101 101 -184 183
-185 183 -2 0 -3 -165 -3 -367z"/>
<path d="M2687 3332 l-167 -167 170 -170 170 -170 0 338 c0 185 -1 337 -3 337
-1 0 -78 -75 -170 -168z"/>
</g>
</svg>
