<svg xmlns="http://www.w3.org/2000/svg" xmlns:xlink="http://www.w3.org/1999/xlink" width="42.667" height="32" viewBox="0 0 42.667 32"><defs><style>.a{fill:url(#a);}</style><linearGradient id="a" y1="0.072" x2="1.313" y2="1.379" gradientUnits="objectBoundingBox"><stop offset="0" stop-color="#5b0998"/><stop offset="1" stop-color="#0bcdd0"/></linearGradient></defs><path class="a" d="M36.119,5.653A35.6,35.6,0,0,0,27.434,3a.133.133,0,0,0-.14.065,23.921,23.921,0,0,0-1.081,2.186,33.006,33.006,0,0,0-9.754,0,21.974,21.974,0,0,0-1.1-2.186A.138.138,0,0,0,15.221,3a35.506,35.506,0,0,0-8.685,2.65A.124.124,0,0,0,6.48,5.7a35,35,0,0,0-6.3,23.9.143.143,0,0,0,.055.1,35.607,35.607,0,0,0,10.654,5.3.139.139,0,0,0,.15-.048,24.807,24.807,0,0,0,2.18-3.488.132.132,0,0,0-.074-.185,23.468,23.468,0,0,1-3.328-1.561.133.133,0,0,1-.013-.223c.224-.165.447-.337.661-.51a.134.134,0,0,1,.138-.018,25.6,25.6,0,0,0,21.443,0,.133.133,0,0,1,.14.017c.214.173.437.346.663.511a.133.133,0,0,1-.012.223,22.021,22.021,0,0,1-3.33,1.559.133.133,0,0,0-.072.186,27.879,27.879,0,0,0,2.178,3.487.136.136,0,0,0,.15.05,35.49,35.49,0,0,0,10.671-5.3.134.134,0,0,0,.056-.1A34.776,34.776,0,0,0,36.175,5.7.107.107,0,0,0,36.119,5.653ZM14.258,24.827A4.061,4.061,0,0,1,10.423,20.6a4.039,4.039,0,0,1,3.834-4.231A4.016,4.016,0,0,1,18.092,20.6,4.039,4.039,0,0,1,14.258,24.827Zm14.177,0A4.061,4.061,0,0,1,24.6,20.6a4.038,4.038,0,0,1,3.834-4.231A4.016,4.016,0,0,1,32.27,20.6,4.028,4.028,0,0,1,28.435,24.827Z" transform="translate(0 -3)"/></svg>