<svg xmlns="http://www.w3.org/2000/svg" xmlns:xlink="http://www.w3.org/1999/xlink" width="859.5" height="697.5" viewBox="0 0 859.5 697.5"><defs><filter id="a" x="530.5" y="130" width="33" height="33" filterUnits="userSpaceOnUse"><feOffset dy="3" input="SourceAlpha"/><feGaussianBlur stdDeviation="3" result="b"/><feFlood flood-color="#fff" flood-opacity="0.431"/><feComposite operator="in" in2="b"/><feComposite in="SourceGraphic"/></filter><filter id="c" x="340.5" y="304" width="33" height="33" filterUnits="userSpaceOnUse"><feOffset dy="3" input="SourceAlpha"/><feGaussianBlur stdDeviation="3" result="d"/><feFlood flood-color="#fff" flood-opacity="0.431"/><feComposite operator="in" in2="d"/><feComposite in="SourceGraphic"/></filter><filter id="e" x="277.5" y="526" width="33" height="33" filterUnits="userSpaceOnUse"><feOffset dy="3" input="SourceAlpha"/><feGaussianBlur stdDeviation="3" result="f"/><feFlood flood-color="#fff" flood-opacity="0.431"/><feComposite operator="in" in2="f"/><feComposite in="SourceGraphic"/></filter></defs><g transform="translate(-956.5 -285)"><g transform="translate(232 -93)"><path d="M221,536s499.46,67.155,497.38,104.712S531.108,706.03,528.06,810.868c-3.12,107.306-195.52,95.042-185.12,153.294,3.37,18.874,53.684,45.431,120.105,72.686,138.783,56.947,347.895,117.016,347.895,117.016" transform="translate(553 -119.504)" fill="none" stroke="rgba(255,255,255,0.39)" stroke-linecap="round" stroke-linejoin="round" stroke-width="8"/><path d="M221,536s499.46,67.155,497.38,104.712S531.108,706.03,528.06,810.868c-3.12,107.306-195.52,95.042-185.12,153.294,3.37,18.874,53.684,45.431,120.105,72.686" transform="translate(553 -119.504)" fill="none" stroke="#660ca4" stroke-linecap="round" stroke-linejoin="round" stroke-width="8"/><path d="M221,536s499.46,67.155,497.38,104.712S531.108,706.03,528.06,810.868c-3.12,107.306-195.52,95.042-185.12,153.294" transform="translate(553 -119.504)" fill="none" stroke="#b100a5" stroke-linecap="round" stroke-linejoin="round" stroke-width="8" opacity="0"/><path d="M221,536s499.46,67.155,497.38,104.712S531.108,706.03,528.06,810.868" transform="translate(553 -119.504)" fill="none" stroke="#bd3ee3" stroke-linecap="round" stroke-linejoin="round" stroke-width="8"/><path d="M221,536s499.46,67.155,497.38,104.712" transform="translate(553 -119.504)" fill="none" stroke="#228eb0" stroke-linecap="round" stroke-linejoin="round" stroke-width="8"/><g transform="matrix(1, 0, 0, 1, 724.5, 378)" filter="url(#a)"><g transform="translate(539.5 136)" fill="#dbfe87" stroke="#a435b5" stroke-width="2"><circle cx="7.5" cy="7.5" r="7.5" stroke="none"/><circle cx="7.5" cy="7.5" r="6.5" fill="none"/></g></g><g transform="matrix(1, 0, 0, 1, 724.5, 378)" filter="url(#c)"><g transform="translate(349.5 310)" fill="#dbfe87" stroke="#a435b5" stroke-width="2"><circle cx="7.5" cy="7.5" r="7.5" stroke="none"/><circle cx="7.5" cy="7.5" r="6.5" fill="none"/></g></g><g transform="matrix(1, 0, 0, 1, 724.5, 378)" filter="url(#e)"><g transform="translate(286.5 532)" fill="#dbfe87" stroke="#a435b5" stroke-width="2"><circle cx="7.5" cy="7.5" r="7.5" stroke="none"/><circle cx="7.5" cy="7.5" r="6.5" fill="none"/></g></g></g><text transform="translate(1687 314)" fill="#fff" font-size="33" font-family="Comfortaa" font-weight="700"><tspan x="-169.422" y="0">Q2-3 2022</tspan></text><g transform="translate(0 -4)"><text transform="translate(1530 341)" fill="#fff" font-size="16" font-family="Comfortaa"><tspan x="0" y="14">Airdrops</tspan><tspan x="0" y="39">Presales</tspan><tspan x="0" y="64">Telegram, Twitter, ... Communities</tspan></text><line y2="73" transform="translate(1517.5 338.5)" fill="none" stroke="#fff" stroke-linecap="round" stroke-width="2"/></g><g transform="translate(-173 301)"><text transform="translate(1691 314)" fill="#fff" font-size="33" font-family="Comfortaa" font-weight="700"><tspan x="-171.567" y="0">Q3-4 2022</tspan></text><g transform="translate(-1 -3)"><text transform="translate(1530 341)" fill="#fff" font-size="16" font-family="Comfortaa"><tspan x="0" y="14">ICO/IDO</tspan><tspan x="0" y="39">NFT Marketplace</tspan><tspan x="0" y="64">Rune NFTs launch and sales!</tspan><tspan x="0" y="89">DEX Liquidities and Trades </tspan></text><path d="M0,0V96.5" transform="translate(1519.5 337.5)" fill="none" stroke="#fff" stroke-linecap="round" stroke-width="2"/></g></g><g transform="translate(-561 564)"><text transform="translate(1821 317)" fill="#fff" font-size="33" font-family="Comfortaa" font-weight="700"><tspan x="-301.818" y="0">Q4 2022 - Q1 2023</tspan></text><g transform="translate(-2 2)"><text transform="translate(1530 341)" fill="#fff" font-size="16" font-family="Comfortaa"><tspan x="0" y="14">Governance Protocols and dApp</tspan><tspan x="0" y="39">Community Growth</tspan><tspan x="0" y="64">Upgrade Marketplace</tspan></text><line y2="80" transform="translate(1520.5 335.5)" fill="none" stroke="#fff" stroke-linecap="round" stroke-width="2"/></g></g></g></svg>