<svg xmlns="http://www.w3.org/2000/svg" xmlns:xlink="http://www.w3.org/1999/xlink" width="38.4" height="32" viewBox="0 0 38.4 32"><defs><style>.a{fill:url(#a);}</style><linearGradient id="a" x1="0.109" y1="0.166" x2="1.09" y2="1.531" gradientUnits="objectBoundingBox"><stop offset="0" stop-color="#5b0998"/><stop offset="1" stop-color="#0bcdd0"/></linearGradient></defs><path class="a" d="M38.126,7.283S41.678,5.9,41.382,9.261c-.1,1.385-.987,6.233-1.677,11.477L37.337,36.272s-.2,2.276-1.973,2.671-4.44-1.385-4.934-1.781c-.395-.3-7.4-4.749-9.867-6.926-.691-.594-1.48-1.781.1-3.166l10.361-9.894c1.184-1.187,2.368-3.958-2.566-.594l-13.814,9.4s-1.579.989-4.539.1L3.689,24.1s-2.368-1.484,1.677-2.968C15.234,16.484,27.371,11.735,38.126,7.283Z" transform="translate(-3 -7)"/></svg>