<svg xmlns="http://www.w3.org/2000/svg" xmlns:xlink="http://www.w3.org/1999/xlink" width="431.751" height="570.878" viewBox="0 0 431.751 570.878"><defs><style>.a{opacity:0;fill:url(#a);}.b{fill:#8800ba;}.c{fill:url(#b);}.d{fill:url(#c);}.e{fill:url(#d);}.f{fill:url(#e);}.g{fill:url(#f);}.h{fill:url(#g);}.i{fill:url(#h);}.j{fill:url(#j);}.k{fill:url(#l);}.l{fill:url(#m);}.m{fill:url(#n);}.n{fill:url(#o);}.o{fill:url(#p);}.p{fill:url(#r);}.q{fill:url(#s);}.r{fill:url(#t);}.s{fill:url(#u);}.t{fill:url(#v);}.u{fill:url(#w);}.v{fill:url(#x);}.w{fill:url(#y);}.x{fill:url(#z);}.y{fill:url(#aa);}.z{fill:url(#ab);}.aa{fill:url(#ac);}.ab{fill:url(#ad);}.ac{fill:url(#ae);}.ad{fill:url(#af);}.ae{fill:url(#ag);}.af{fill:url(#ah);}.ag{fill:url(#ai);}.ah{fill:url(#aj);}.ai{fill:url(#ak);}.aj{fill:#3b3bc4;}.ak{fill:url(#al);}.al{fill:url(#am);}.am{fill:#dfd2ff;}.an{fill:#554fc6;}.ao{fill:#b590ff;}.ap{fill:#f5e9e6;}.aq{fill:url(#an);}.ar{fill:url(#ao);}.as{fill:url(#ap);}.at{fill:url(#aq);}.au{fill:url(#ar);}.av{fill:url(#as);}.aw{fill:url(#at);}.ax{fill:url(#au);}.ay{fill:url(#av);}.az{fill:url(#aw);}.ba{fill:url(#ax);}.bb{fill:url(#ay);}.bc{fill:url(#az);}.bd{fill:url(#ba);}.be{fill:url(#bb);}.bf{fill:url(#bc);}.bg{fill:url(#bd);}.bh{fill:url(#be);}.bi{fill:url(#bf);}.bj{fill:url(#bg);}.bk{fill:url(#bh);}.bl{fill:url(#bi);}.bm{fill:url(#bj);}.bn{fill:url(#bk);}.bo{fill:url(#bl);}.bp{fill:url(#bm);}.bq{fill:url(#bn);}.br{fill:url(#bo);}.bs{fill:url(#bp);}.bt{fill:url(#bq);}.bu{fill:url(#br);}.bv{fill:url(#bs);}.bw{fill:url(#bt);}.bx{fill:url(#bu);}.by{fill:url(#bv);}.bz{fill:url(#bw);}.ca{fill:url(#bx);}.cb{fill:url(#by);}.cc{fill:url(#bz);}.cd{fill:url(#ca);}.ce{fill:#7146ce;}.cf{fill:#efe1ee;}.cg{fill:#fff;}.ch{fill:url(#cb);}.ci{fill:#1800c2;}</style><linearGradient id="a" x1="0.5" y1="0.018" x2="0.5" y2="1.079" gradientUnits="objectBoundingBox"><stop offset="0" stop-color="#9c74ff"/><stop offset="1" stop-color="#ffff5e"/></linearGradient><linearGradient id="b" x1="0.661" y1="0.5" x2="0.374" y2="0.5" gradientUnits="objectBoundingBox"><stop offset="0" stop-color="#ba83ff"/><stop offset="1" stop-color="#b0a4e2"/></linearGradient><linearGradient id="c" x1="2.048" y1="2.063" x2="-0.38" y2="-0.388" gradientUnits="objectBoundingBox"><stop offset="0" stop-color="#9c74ff"/><stop offset="1" stop-color="#fff6e2"/></linearGradient><linearGradient id="d" x1="0.586" y1="0.5" x2="0.452" y2="0.5" gradientUnits="objectBoundingBox"><stop offset="0" stop-color="#3d00e7"/><stop offset="1" stop-color="#6031ff"/></linearGradient><linearGradient id="e" x1="2.197" y1="2.635" x2="-0.628" y2="-0.919" gradientUnits="objectBoundingBox"><stop offset="0" stop-color="#6318ff"/><stop offset="1" stop-color="#fff6e2"/></linearGradient><linearGradient id="f" x1="2.43" y1="2.928" x2="-1.075" y2="-1.482" gradientUnits="objectBoundingBox"><stop offset="0" stop-color="#4500ff"/><stop offset="1" stop-color="#6a31ff"/></linearGradient><linearGradient id="g" x1="0.975" y1="0.923" x2="-0.267" y2="-0.358" gradientUnits="objectBoundingBox"><stop offset="0" stop-color="#a43dff"/><stop offset="1" stop-color="#ead6e2"/></linearGradient><linearGradient id="h" x1="5.265" y1="-5.802" x2="2.053" y2="-9.12" gradientUnits="objectBoundingBox"><stop offset="0" stop-color="#bf9fff"/><stop offset="1" stop-color="#fff6e2"/></linearGradient><linearGradient id="j" x1="5.469" y1="-5.689" x2="2.257" y2="-9.005" xlink:href="#h"/><linearGradient id="l" x1="5.623" y1="-5.644" x2="2.411" y2="-8.963" xlink:href="#h"/><linearGradient id="m" x1="0.975" y1="0.922" x2="-0.267" y2="-0.358" xlink:href="#g"/><linearGradient id="n" x1="5.829" y1="-5.538" x2="2.617" y2="-8.858" xlink:href="#h"/><linearGradient id="o" x1="0.975" y1="0.924" x2="-0.268" y2="-0.357" xlink:href="#g"/><linearGradient id="p" x1="5.982" y1="-5.493" x2="2.769" y2="-8.814" xlink:href="#h"/><linearGradient id="r" x1="6.22" y1="-5.351" x2="3.008" y2="-8.672" xlink:href="#h"/><linearGradient id="s" x1="0.539" y1="0.499" x2="0.412" y2="0.499" gradientUnits="objectBoundingBox"><stop offset="0" stop-color="#3600f4"/><stop offset="1" stop-color="#330ee0"/></linearGradient><linearGradient id="t" x1="5.304" y1="14.248" x2="1.861" y2="10.836" gradientUnits="objectBoundingBox"><stop offset="0" stop-color="#6318ff"/><stop offset="1" stop-color="#13ffe2"/></linearGradient><linearGradient id="u" x1="12.033" y1="28.39" x2="7.98" y2="25.677" xlink:href="#t"/><linearGradient id="v" x1="7.372" y1="19.609" x2="3.732" y2="16.486" xlink:href="#t"/><linearGradient id="w" x1="6.509" y1="17.568" x2="2.959" y2="14.334" xlink:href="#t"/><linearGradient id="x" x1="18.899" y1="34.47" x2="14.152" y2="32.134" xlink:href="#t"/><linearGradient id="y" x1="5.304" y1="14.092" x2="1.861" y2="10.679" xlink:href="#t"/><linearGradient id="z" x1="12.033" y1="28.033" x2="7.98" y2="25.32" xlink:href="#t"/><linearGradient id="aa" x1="7.372" y1="19.351" x2="3.732" y2="16.23" xlink:href="#t"/><linearGradient id="ab" x1="6.509" y1="17.347" x2="2.959" y2="14.115" xlink:href="#t"/><linearGradient id="ac" x1="18.899" y1="34.002" x2="14.152" y2="31.666" xlink:href="#t"/><linearGradient id="ad" x1="5.304" y1="13.926" x2="1.861" y2="10.515" xlink:href="#t"/><linearGradient id="ae" x1="12.033" y1="27.683" x2="7.98" y2="24.969" xlink:href="#t"/><linearGradient id="af" x1="7.372" y1="19.113" x2="3.732" y2="15.991" xlink:href="#t"/><linearGradient id="ag" x1="6.509" y1="17.152" x2="2.959" y2="13.918" xlink:href="#t"/><linearGradient id="ah" x1="18.899" y1="33.543" x2="14.152" y2="31.206" xlink:href="#t"/><linearGradient id="ai" x1="5.304" y1="13.764" x2="1.861" y2="10.353" xlink:href="#t"/><linearGradient id="aj" x1="0.571" y1="0.5" x2="0.433" y2="0.5" gradientUnits="objectBoundingBox"><stop offset="0" stop-color="#867ce2"/><stop offset="1" stop-color="#b590ff"/></linearGradient><linearGradient id="ak" x1="2.5" y1="3.019" x2="-0.326" y2="-0.541" xlink:href="#e"/><linearGradient id="al" x1="0.279" y1="0.629" x2="0.576" y2="0.392" gradientUnits="objectBoundingBox"><stop offset="0" stop-color="#796de8"/><stop offset="1" stop-color="#554fc6"/></linearGradient><linearGradient id="am" x1="0.265" y1="0.668" x2="0.608" y2="0.402" xlink:href="#al"/><linearGradient id="an" x1="0.571" y1="0.5" x2="0.432" y2="0.5" xlink:href="#aj"/><linearGradient id="ao" x1="2.501" y1="3.016" x2="-0.326" y2="-0.539" xlink:href="#e"/><linearGradient id="ap" x1="0.279" y1="0.629" x2="0.577" y2="0.392" xlink:href="#al"/><linearGradient id="aq" x1="0.265" y1="0.668" x2="0.608" y2="0.402" xlink:href="#al"/><linearGradient id="ar" x1="0.586" y1="0.5" x2="0.451" y2="0.5" xlink:href="#d"/><linearGradient id="as" x1="2.198" y1="2.634" x2="-0.629" y2="-0.918" xlink:href="#e"/><linearGradient id="at" x1="2.43" y1="2.929" x2="-1.076" y2="-1.481" xlink:href="#f"/><linearGradient id="au" x1="0.975" y1="0.924" x2="-0.268" y2="-0.356" xlink:href="#g"/><linearGradient id="av" x1="1.73" y1="-7.134" x2="-1.483" y2="-10.446" xlink:href="#e"/><linearGradient id="aw" x1="0.975" y1="0.922" x2="-0.268" y2="-0.358" xlink:href="#g"/><linearGradient id="ax" x1="1.937" y1="-7.041" x2="-1.274" y2="-10.359" xlink:href="#e"/><linearGradient id="ay" x1="0.975" y1="0.922" x2="-0.268" y2="-0.358" xlink:href="#g"/><linearGradient id="az" x1="2.088" y1="-6.992" x2="-1.124" y2="-10.311" xlink:href="#e"/><linearGradient id="ba" x1="0.975" y1="0.924" x2="-0.268" y2="-0.358" xlink:href="#g"/><linearGradient id="bb" x1="2.327" y1="-6.852" x2="-0.885" y2="-10.17" xlink:href="#e"/><linearGradient id="bc" x1="0.538" y1="0.498" x2="0.412" y2="0.498" xlink:href="#s"/><linearGradient id="bd" x1="5.328" y1="12.602" x2="1.886" y2="9.189" xlink:href="#t"/><linearGradient id="be" x1="12.1" y1="24.766" x2="8.053" y2="22.053" xlink:href="#t"/><linearGradient id="bf" x1="7.414" y1="17.125" x2="3.776" y2="14.004" xlink:href="#t"/><linearGradient id="bg" x1="6.542" y1="15.437" x2="2.994" y2="12.203" xlink:href="#t"/><linearGradient id="bh" x1="19.056" y1="29.689" x2="14.308" y2="27.353" xlink:href="#t"/><linearGradient id="bi" x1="5.328" y1="12.446" x2="1.886" y2="9.032" xlink:href="#t"/><linearGradient id="bj" x1="12.1" y1="24.408" x2="8.053" y2="21.695" xlink:href="#t"/><linearGradient id="bk" x1="7.414" y1="16.882" x2="3.776" y2="13.76" xlink:href="#t"/><linearGradient id="bl" x1="6.542" y1="15.227" x2="2.994" y2="11.993" xlink:href="#t"/><linearGradient id="bm" x1="19.056" y1="29.271" x2="14.308" y2="26.93" xlink:href="#t"/><linearGradient id="bn" x1="5.328" y1="12.287" x2="1.886" y2="8.873" xlink:href="#t"/><linearGradient id="bo" x1="0.571" y1="0.5" x2="0.432" y2="0.5" xlink:href="#aj"/><linearGradient id="bp" x1="2.503" y1="3.016" x2="-0.328" y2="-0.538" xlink:href="#e"/><linearGradient id="bq" x1="0.579" y1="0.593" x2="0.527" y2="0.515" xlink:href="#d"/><linearGradient id="br" x1="0.625" y1="0.684" x2="-0.11" y2="-0.389" gradientUnits="objectBoundingBox"><stop offset="0" stop-color="#1800c2"/><stop offset="1" stop-color="#240ed6"/></linearGradient><linearGradient id="bs" x1="6.013" y1="0.036" x2="2.892" y2="-2.853" xlink:href="#e"/><linearGradient id="bt" x1="147.461" y1="-131.193" x2="144.419" y2="-134.292" xlink:href="#e"/><linearGradient id="bu" x1="0.6" y1="0.5" x2="0.555" y2="0.5" xlink:href="#br"/><linearGradient id="bv" x1="-2.268" y1="-3.419" x2="-1.417" y2="-2.464" xlink:href="#d"/><linearGradient id="bw" x1="-0.475" y1="-2.013" x2="-3.129" y2="-8.072" xlink:href="#e"/><linearGradient id="bx" x1="-3.071" y1="-9.621" x2="-5.781" y2="-15.813" xlink:href="#e"/><linearGradient id="by" x1="0.298" y1="0.535" x2="0.327" y2="0.532" xlink:href="#br"/><linearGradient id="bz" x1="0.43" y1="0.5" x2="0.486" y2="0.5" xlink:href="#br"/><linearGradient id="ca" x1="-4.004" y1="-14.039" x2="-6.656" y2="-20.087" xlink:href="#e"/><linearGradient id="cb" x1="0.258" y1="0.913" x2="0.396" y2="0.625" xlink:href="#d"/></defs><g transform="translate(-50.921)"><g transform="translate(50.921)"><path class="a" d="M36.91,337.776h0c.179,8.156,5.2,15.926,15.278,21.764l165.831,96.123c22.689,13.152,62.352,11.579,88.6-3.519l140.3-80.625c14.588-8.391,21.957-19.2,21.736-29.382h0L468.519,0H37.034Z" transform="translate(-36.91)"/></g><g transform="translate(0 215.275)"><path class="b" d="M215.4,419.49,67.2,333.593c-20.273-11.758-17.693-32.211,5.769-45.708l125.3-72.054c23.461-13.483,58.916-14.891,79.189-3.147l148.194,85.91c20.273,11.745,17.693,32.211-5.769,45.695l-125.3,72.068C271.125,429.84,235.671,431.248,215.4,419.49Z" transform="translate(20.331 -137.464)"/><path class="c" d="M468.588,302.714l-.166-29.617-28.982-.152L287.479,184.827c-22.689-13.152-62.352-11.579-88.6,3.519L58.66,268.984c-1.159.649-2.25,1.38-3.3,2.029l-18.452-.1v27.45h0c.179,8.143,5.2,15.912,15.278,21.75L218.019,416.24c22.689,13.152,62.352,11.579,88.6-3.519L446.92,332.1c14.588-8.391,21.957-19.183,21.736-29.382Z" transform="translate(14.011 -148.415)"/><path class="d" d="M218.032,396.375,52.214,300.252c-22.7-13.138-19.8-36.048,6.445-51.146l140.217-80.68c26.222-15.1,65.913-16.671,88.6-3.519L453.309,261.03c22.689,13.152,19.79,36.048-6.459,51.146L306.633,392.8C280.384,407.954,240.72,409.527,218.032,396.375Z" transform="translate(14.012 -155.986)"/></g><g transform="translate(182.029 89.949)"><path class="e" d="M254.383,244.038V91.207L139.09,88.93V240.836a2.9,2.9,0,0,0,1.684,3.464l52.292,30.942c2.76,1.6,7.48,1.449,10.64-.331l48.068-27.174C253.651,246.743,254.534,245.335,254.383,244.038Z" transform="translate(-129.222 -56.148)"/><path class="f" d="M193.077,130.763,140.786,99.835c-2.76-1.6-2.346-4.347.814-6.128l48.068-27.091c3.16-1.78,7.922-1.932,10.64-.331l52.305,30.942c2.76,1.6,2.332,4.347-.828,6.128l-48.068,27.077C200.557,132.212,195.8,132.364,193.077,130.763Z" transform="translate(-129.235 -65.177)"/><path class="g" d="M188.506,114.3,156.46,95.347c-1.656-.98-1.38-2.664.511-3.754l29.451-16.561a7.246,7.246,0,0,1,6.514-.207l32.046,18.949c1.656.98,1.38,2.664-.511,3.754L195.02,114.089A7.245,7.245,0,0,1,188.506,114.3Z" transform="translate(-122.993 -61.765)"/><path class="h" d="M186.42,198.521a6.9,6.9,0,0,0-2.871-5.631L144.631,169.9a1.974,1.974,0,0,0-1.946-.179h0a1.379,1.379,0,0,0-.235.138l-9.661,5.755,42.451,31.218,9.8-5.838a1.559,1.559,0,0,0,.593-.359h0A2.843,2.843,0,0,0,186.42,198.521Z" transform="translate(-131.575 -25.509)"/><path class="i" d="M173.783,204.95l-38.918-22.992a6.9,6.9,0,0,1-2.884-5.645h0c0-2.153,1.38-3.105,3.05-2.139l38.918,22.978a6.9,6.9,0,0,1,2.871,5.645h0C176.778,204.95,175.411,205.916,173.783,204.95Z" transform="translate(-131.883 -23.891)"/><path class="h" d="M186.32,186.121a6.9,6.9,0,0,0-2.884-5.631L144.517,157.5a1.946,1.946,0,0,0-1.932-.179h0a1.382,1.382,0,0,0-.235.138l-9.661,5.755,42.451,31.218,9.8-5.838a1.56,1.56,0,0,0,.593-.359h0A2.843,2.843,0,0,0,186.32,186.121Z" transform="translate(-131.613 -30.222)"/><path class="j" d="M173.658,192.591l-38.863-23.034a6.9,6.9,0,0,1-2.884-5.645h0c0-2.139,1.38-3.105,3.05-2.139l38.918,22.978a6.9,6.9,0,0,1,2.871,5.645h0C176.666,192.591,175.3,193.515,173.658,192.591Z" transform="translate(-131.91 -28.604)"/><path class="h" d="M186.4,173.735a6.9,6.9,0,0,0-2.871-5.645L144.611,145.1a1.974,1.974,0,0,0-1.946-.179h0a1.379,1.379,0,0,0-.235.138l-9.661,5.755,42.451,31.218,9.8-5.838a1.559,1.559,0,0,0,.593-.359h0A2.829,2.829,0,0,0,186.4,173.735Z" transform="translate(-131.583 -34.935)"/><path class="k" d="M173.763,180.149l-38.918-22.992a6.9,6.9,0,0,1-2.884-5.645h0c0-2.139,1.38-3.105,3.05-2.139l38.918,22.992A6.9,6.9,0,0,1,176.8,178h0C176.758,180.149,175.391,181.115,173.763,180.149Z" transform="translate(-131.891 -33.317)"/><path class="l" d="M186.36,161.293a6.9,6.9,0,0,0-2.884-5.645l-38.9-22.978a1.918,1.918,0,0,0-1.946-.179h0a1.381,1.381,0,0,0-.235.138l-9.661,5.755L175.181,169.6l9.8-5.852a1.38,1.38,0,0,0,.593-.345h0A2.843,2.843,0,0,0,186.36,161.293Z" transform="translate(-131.598 -39.661)"/><path class="m" d="M173.727,167.706l-38.932-22.978a6.9,6.9,0,0,1-2.884-5.645h0c0-2.153,1.38-3.105,3.05-2.139l38.918,22.978a6.9,6.9,0,0,1,2.871,5.645h0C176.721,167.72,175.355,168.672,173.727,167.706Z" transform="translate(-131.91 -38.042)"/><path class="n" d="M186.433,148.9a6.9,6.9,0,0,0-2.871-5.645l-38.918-22.978a1.946,1.946,0,0,0-1.918-.235h0a1.381,1.381,0,0,0-.235.138l-9.661,5.755,42.451,31.218,9.8-5.852a1.38,1.38,0,0,0,.593-.345h0A2.843,2.843,0,0,0,186.433,148.9Z" transform="translate(-131.56 -44.381)"/><path class="o" d="M173.8,155.3l-38.918-22.978A6.9,6.9,0,0,1,132,126.693h0c0-2.153,1.38-3.105,3.05-2.139l38.918,22.978a6.9,6.9,0,0,1,2.871,5.645h0C176.8,155.316,175.431,156.268,173.8,155.3Z" transform="translate(-131.876 -42.751)"/><path class="h" d="M186.44,136.491a6.9,6.9,0,0,0-2.871-5.631l-38.918-22.992a1.974,1.974,0,0,0-1.946-.179h0a1.379,1.379,0,0,0-.235.138l-9.661,5.755L175.261,144.8l9.8-5.838a1.559,1.559,0,0,0,.593-.359h0A2.843,2.843,0,0,0,186.44,136.491Z" transform="translate(-131.568 -49.085)"/><path class="p" d="M173.8,142.92l-38.918-22.992A6.9,6.9,0,0,1,132,114.283h0c0-2.153,1.38-3.105,3.05-2.139l38.918,22.978a6.9,6.9,0,0,1,2.871,5.645h0C176.8,142.92,175.431,143.831,173.8,142.92Z" transform="translate(-131.876 -47.468)"/><path class="q" d="M156.471,95.408l5.286,3.16,24.607-13.8a7.246,7.246,0,0,1,6.514-.207l26.7,15.788,4.83-2.76c1.946-1.09,2.167-2.76.511-3.754l-31.99-18.976a7.2,7.2,0,0,0-6.514.193L156.968,91.613C155.036,92.745,154.857,94.415,156.471,95.408Z" transform="translate(-122.99 -61.757)"/><path class="r" d="M226.662,114.952,190.2,136.012V130.34l36.462-21.06Z" transform="translate(-109.755 -48.413)"/><path class="s" d="M219.7,122.852l-11.179,6.459v-5.672L219.7,117.18Z" transform="translate(-102.791 -45.411)"/><path class="t" d="M211.233,129.3,190.2,141.443v-5.658l21.033-12.145Z" transform="translate(-109.755 -42.955)"/><path class="u" d="M223.766,130.442,197.82,145.458V139.8l25.946-15.029Z" transform="translate(-106.858 -42.526)"/><path class="v" d="M196.466,143.1l-6.266,3.588v-5.672l6.266-3.574Z" transform="translate(-109.755 -37.71)"/><path class="w" d="M226.662,138.368,190.2,159.428V153.77l36.462-21.06Z" transform="translate(-109.755 -39.508)"/><path class="x" d="M219.7,146.3l-11.179,6.459v-5.672L219.7,140.63Z" transform="translate(-102.791 -36.498)"/><path class="y" d="M211.233,152.762,190.2,164.907v-5.672l21.033-12.145Z" transform="translate(-109.755 -34.042)"/><path class="z" d="M223.766,153.892,197.82,168.921v-5.672l25.946-15.029Z" transform="translate(-106.858 -33.613)"/><path class="aa" d="M196.466,166.548l-6.266,3.588v-5.672l6.266-3.574Z" transform="translate(-109.755 -28.797)"/><path class="ab" d="M226.662,161.412,190.2,182.472V176.8l36.462-21.06Z" transform="translate(-109.755 -30.755)"/><path class="ac" d="M219.7,169.3l-11.179,6.459V170.1L219.7,163.63Z" transform="translate(-102.791 -27.756)"/><path class="ad" d="M211.233,175.762,190.2,187.907v-5.672l21.033-12.145Z" transform="translate(-109.755 -25.3)"/><path class="ae" d="M223.766,176.9,197.82,191.918v-5.672l25.946-15.015Z" transform="translate(-106.858 -24.867)"/><path class="af" d="M196.466,189.562l-6.266,3.574v-5.658l6.266-3.588Z" transform="translate(-109.755 -20.055)"/><path class="ag" d="M226.662,184.832,190.2,205.892V200.22l36.462-21.06Z" transform="translate(-109.755 -21.853)"/></g><g transform="translate(93.843 236.517)"><path class="ah" d="M137,266.935V186.89l-68.922-1.38v79.452a1.753,1.753,0,0,0,.994,2.084l31.287,18.507a7.066,7.066,0,0,0,6.362-.207l28.733-16.188C136.572,268.55,137.11,267.708,137,266.935Z" transform="translate(-68.01 -166.007)"/><path class="ai" d="M100.359,210.534,69.086,192.041c-1.615-.966-1.38-2.608.5-3.671l28.775-16.133a7.052,7.052,0,0,1,6.362-.193l31.259,18.493c1.629.952,1.38,2.595-.483,3.657l-28.775,16.133A7.066,7.066,0,0,1,100.359,210.534Z" transform="translate(-68.011 -171.378)"/><path class="aj" d="M115.275,261.4,105.2,255.684V249.75l10.075,5.714Z" transform="translate(-53.876 -141.59)"/><path class="aj" d="M122.161,255.792l-9.661-5.4,9.661-.566Z" transform="translate(-51.101 -141.559)"/><path class="ak" d="M113.964,241.469,113.95,253.1l10.7-3.726,6.652-10.723-6.128-5.024Z" transform="translate(-50.55 -147.717)"/><path class="al" d="M113.974,228.716l-.014,10.061,12.738-5.7,2.056-9.95-6.128-1.477Z" transform="translate(-50.546 -152.27)"/><path class="am" d="M101.9,220.866l4.582-2.636,10.075,5.7-4.6,2.65Z" transform="translate(-55.13 -153.57)"/><path class="am" d="M123.587,219.924l-10.061-5.714-4.706,2.677,10.061,5.714Z" transform="translate(-52.5 -155.098)"/><path class="am" d="M128.775,218.13l-9.605-5.52-3.05,3.243,10.323,4.278Z" transform="translate(-49.725 -155.706)"/><path class="an" d="M105.234,213.93l10.061,5.7v5.934l-10.075-5.7Z" transform="translate(-53.868 -155.204)"/><path class="an" d="M112.23,209.89l10.061,5.714v5.962l-10.061-5.714Z" transform="translate(-51.204 -156.74)"/><path class="am" d="M117.2,207.81l10.061,5.714-4.968,2.871-10.061-5.714Z" transform="translate(-51.204 -157.531)"/><path class="am" d="M110.2,211.85l10.061,5.714-4.968,2.857-10.061-5.7Z" transform="translate(-53.864 -155.995)"/><path class="ao" d="M123.423,270.2v-5.962l-3.133,1.836-1.559.9v5.934l-4.955,2.871v-5.934l-4.6,2.636v-43.5l4.6-2.65v-5.934l4.968-2.857v5.934l3.492-2.015,1.2-.662v-6l4.968-2.871v6.473a4.941,4.941,0,0,1,2.995,0,4.665,4.665,0,0,1,2.526,2.181,8.888,8.888,0,0,1,.994,4.513,17.666,17.666,0,0,1-1.242,6.321,19.722,19.722,0,0,1-3.354,5.769,4.513,4.513,0,0,1,4.582,1.3,8.4,8.4,0,0,1,1.6,5.631,21.915,21.915,0,0,1-1.035,6.376,23.543,23.543,0,0,1-2.843,6.128,17.831,17.831,0,0,1-4.251,4.5v6.238Zm-7.59-20.48v11.634l6.1-3.519a38.384,38.384,0,0,0,4.527-2.871,8.833,8.833,0,0,0,2.388-3.119,9.481,9.481,0,0,0,.938-4.223,4.885,4.885,0,0,0-.718-2.912,2.07,2.07,0,0,0-2.056-.8,21.391,21.391,0,0,0-5.838,2.76Zm0-17.306v10.061l4.32-2.484c2.567-1.477,4.14-2.457,4.789-2.912a8.971,8.971,0,0,0,2.664-3.091,8.281,8.281,0,0,0,.966-3.947,3.754,3.754,0,0,0-.828-2.76c-.552-.524-1.38-.552-2.484-.1q-.98.414-5.631,3.091Z" transform="translate(-52.363 -155.968)"/><path class="an" d="M101.908,220.14l10.061,5.714-.028,43.5L101.88,263.64Z" transform="translate(-55.138 -152.844)"/><path class="ap" d="M76.059,207.474,71.436,204.8a1.38,1.38,0,0,1-.566-1.076v-7.494c0-.414.248-.607.566-.428l4.623,2.677a1.38,1.38,0,0,1,.566,1.09v7.48C76.57,207.46,76.377,207.653,76.059,207.474Z" transform="translate(-66.924 -162.122)"/><path class="ap" d="M82.049,210.942l-4.623-2.677a1.38,1.38,0,0,1-.566-1.076v-7.494c0-.414.248-.607.566-.414l4.623,2.664a1.38,1.38,0,0,1,.524,1.118v7.48C82.574,210.942,82.367,211.122,82.049,210.942Z" transform="translate(-64.647 -160.801)"/><path class="ap" d="M88.039,214.439l-4.623-2.677a1.38,1.38,0,0,1-.566-1.09v-7.535c0-.414.248-.607.566-.428l4.623,2.677a1.38,1.38,0,0,1,.566,1.076v7.494C88.577,214.425,88.357,214.619,88.039,214.439Z" transform="translate(-62.371 -159.495)"/><path class="ap" d="M76.059,216.034l-4.623-2.677a1.38,1.38,0,0,1-.566-1.076v-7.494c0-.414.248-.607.566-.428l4.623,2.677a1.38,1.38,0,0,1,.566,1.076v7.494C76.57,216.02,76.377,216.213,76.059,216.034Z" transform="translate(-66.924 -158.868)"/><path class="ap" d="M82.049,219.5l-4.623-2.677a1.38,1.38,0,0,1-.566-1.076v-7.494c0-.414.248-.607.566-.428l4.623,2.677a1.38,1.38,0,0,1,.566,1.076v7.549C82.574,219.49,82.367,219.683,82.049,219.5Z" transform="translate(-64.647 -157.549)"/><path class="ap" d="M88.039,222.974,83.416,220.3a1.38,1.38,0,0,1-.566-1.076v-7.494c0-.414.248-.607.566-.428l4.623,2.677a1.38,1.38,0,0,1,.538,1.076v7.48C88.577,222.96,88.357,223.153,88.039,222.974Z" transform="translate(-62.371 -156.23)"/><path class="ap" d="M82.049,228.064l-4.623-2.677a1.38,1.38,0,0,1-.566-1.076v-7.494c0-.414.248-.607.566-.428l4.623,2.677a1.38,1.38,0,0,1,.566,1.076v7.494C82.574,228.05,82.367,228.3,82.049,228.064Z" transform="translate(-64.647 -154.296)"/><path class="ap" d="M76.059,233.133,71.436,230.5a1.38,1.38,0,0,1-.566-1.076v-7.494c0-.414.248-.607.566-.428l4.623,2.677a1.38,1.38,0,0,1,.566,1.09v7.48C76.57,233.119,76.377,233.257,76.059,233.133Z" transform="translate(-66.924 -152.353)"/><path class="ap" d="M88.039,248.644l-4.623-2.677a1.38,1.38,0,0,1-.566-1.076V237.4c0-.414.248-.607.566-.428l4.623,2.677a1.38,1.38,0,0,1,.566,1.09v7.48C88.577,248.644,88.357,248.823,88.039,248.644Z" transform="translate(-62.371 -146.473)"/></g><g transform="translate(344.232 178.737)"><path class="aq" d="M318.44,272.47V145.06l-68.922-1.38V270.455a1.739,1.739,0,0,0,1.007,2.084l31.259,18.479a7.052,7.052,0,0,0,6.362-.193l28.733-16.188C318.012,274.029,318.537,273.187,318.44,272.47Z" transform="translate(-249.437 -124.126)"/><path class="ar" d="M281.789,168.7l-31.273-18.493c-1.615-.966-1.38-2.595.5-3.671l28.733-16.188a7.053,7.053,0,0,1,6.348-.166l31.273,18.493c1.615.952,1.38,2.595-.5,3.657l-28.733,16.188a7.066,7.066,0,0,1-6.348.179Z" transform="translate(-249.441 -129.511)"/><path class="aj" d="M304.174,262.222l-13.994-7.949V246.02l14.008,7.935Z" transform="translate(-233.956 -85.228)"/><path class="aj" d="M313.772,254.424l-13.442-7.508,13.442-.787Z" transform="translate(-230.099 -85.186)"/><path class="as" d="M302.364,234.493l-.014,16.188,14.877-5.175,9.247-14.919-8.515-7Z" transform="translate(-229.331 -93.753)"/><path class="at" d="M302.37,216.76v13.994l17.72-7.936,2.857-13.842L314.4,206.92Z" transform="translate(-229.323 -100.089)"/><path class="am" d="M285.58,205.831l6.39-3.671,14.008,7.949-6.39,3.671Z" transform="translate(-235.705 -101.898)"/><path class="am" d="M315.76,204.519l-14.008-7.949-6.542,3.74,14.008,7.936Z" transform="translate(-232.045 -104.023)"/><path class="am" d="M322.98,202.023l-13.373-7.673-4.237,4.5,14.367,5.962Z" transform="translate(-228.183 -104.867)"/><path class="an" d="M290.21,196.18l14.008,7.936v8.267l-14.008-7.949Z" transform="translate(-233.945 -104.171)"/><path class="an" d="M299.95,190.56l14.008,7.949V206.8l-14.008-7.949Z" transform="translate(-230.243 -106.307)"/><path class="am" d="M306.864,187.68l14.008,7.936-6.914,3.988-14.008-7.949Z" transform="translate(-230.243 -107.402)"/><path class="am" d="M297.124,193.29l14.008,7.949-6.914,3.975-14.008-7.936Z" transform="translate(-233.945 -105.27)"/><path class="ao" d="M315.532,274.428v-8.281c-1.3.773-2.76,1.629-4.375,2.553l-2.167,1.256v8.281l-6.9,3.988v-8.281l-6.39,3.685V217.1l6.39-3.671v-8.281l6.9-3.975v8.281l4.872-2.76c.566-.331,1.132-.635,1.67-.925v-8.281l6.9-3.988v8.971a6.983,6.983,0,0,1,4.14,0,6.473,6.473,0,0,1,3.505,3.036,12.421,12.421,0,0,1,1.38,6.279,24.842,24.842,0,0,1-1.725,8.8,27.243,27.243,0,0,1-4.665,8,6.266,6.266,0,0,1,6.376,1.808c1.491,1.739,2.236,4.347,2.236,7.853a31.187,31.187,0,0,1-1.38,8.846,32.554,32.554,0,0,1-3.961,8.543,24.083,24.083,0,0,1-5.921,6.252v8.681Zm-10.64-28.5v16.188l8.488-4.9a51.677,51.677,0,0,0,6.293-3.988A12.573,12.573,0,0,0,323,248.9a13.4,13.4,0,0,0,1.3-5.879,6.762,6.762,0,0,0-.994-4.057,2.912,2.912,0,0,0-2.857-1.118c-1.256.138-3.961,1.38-8.129,3.823Zm0-24.069v13.994l6-3.464q5.355-3.091,6.652-4.044a12.269,12.269,0,0,0,3.712-4.306,11.675,11.675,0,0,0,1.38-5.52,5.2,5.2,0,0,0-1.159-3.892c-.773-.731-1.932-.773-3.45-.138-.911.386-3.533,1.822-7.839,4.306Z" transform="translate(-231.858 -105.19)"/><path class="an" d="M285.588,204.82l14.008,7.949-.041,60.531-13.994-7.949Z" transform="translate(-235.712 -100.887)"/><path class="ap" d="M257.429,166.624l-4.623-2.677a1.38,1.38,0,0,1-.566-1.076v-7.494c0-.414.262-.607.566-.428l4.637,2.677a1.38,1.38,0,0,1,.552,1.076V166.2C257.967,166.61,257.719,166.8,257.429,166.624Z" transform="translate(-248.377 -119.868)"/><path class="ap" d="M263.429,170.094l-4.623-2.677a1.38,1.38,0,0,1-.566-1.076v-7.494c0-.414.262-.607.566-.428l4.637,2.677a1.38,1.38,0,0,1,.552,1.09v7.48C263.954,170.08,263.705,170.287,263.429,170.094Z" transform="translate(-246.096 -118.549)"/><path class="ap" d="M269.429,173.561l-4.623-2.664a1.38,1.38,0,0,1-.566-1.09v-7.48c0-.428.262-.607.566-.428l4.623,2.677a1.38,1.38,0,0,1,.566,1.076v7.452C269.94,173.561,269.691,173.754,269.429,173.561Z" transform="translate(-243.816 -117.227)"/><path class="ap" d="M257.437,175.253l-4.651-2.76a1.38,1.38,0,0,1-.566-1.076v-7.48c0-.414.262-.607.566-.428l4.637,2.677a1.38,1.38,0,0,1,.552,1.076v7.494C257.975,175.17,257.727,175.363,257.437,175.253Z" transform="translate(-248.385 -116.615)"/><path class="ap" d="M263.429,178.654l-4.623-2.677a1.38,1.38,0,0,1-.566-1.076v-7.494c0-.414.262-.607.566-.428l4.623,2.677a1.38,1.38,0,0,1,.552,1.076v7.494C263.954,178.64,263.705,178.833,263.429,178.654Z" transform="translate(-246.096 -115.296)"/><path class="ap" d="M269.444,182.105l-4.678-2.608a1.38,1.38,0,0,1-.566-1.076v-7.494c0-.414.262-.607.566-.428l4.623,2.677a1.38,1.38,0,0,1,.566,1.076v7.494C269.955,182.091,269.707,182.257,269.444,182.105Z" transform="translate(-243.831 -113.958)"/><path class="ap" d="M263.441,187.257l-4.665-2.76a1.38,1.38,0,0,1-.566-1.09v-7.48c0-.414.262-.607.566-.428l4.637,2.677a1.38,1.38,0,0,1,.552,1.076v7.494C263.965,187.257,263.717,187.409,263.441,187.257Z" transform="translate(-246.108 -112.058)"/><path class="ap" d="M269.429,199.231l-4.623-2.664a1.38,1.38,0,0,1-.566-1.09V188c0-.428.262-.607.566-.428l4.623,2.677a1.38,1.38,0,0,1,.566,1.076v7.494C269.94,199.231,269.691,199.424,269.429,199.231Z" transform="translate(-243.816 -107.47)"/><path class="ap" d="M257.429,209.412l-4.623-2.677a1.38,1.38,0,0,1-.566-1.076v-7.521c0-.428.262-.607.566-.428l4.637,2.677a1.38,1.38,0,0,1,.552,1.076v7.494C257.967,209.412,257.719,209.592,257.429,209.412Z" transform="translate(-248.377 -103.616)"/></g><g transform="translate(80.12 392.537)"><path class="au" d="M185.306,405.865V306.816L86.257,304.87v98.166a2.526,2.526,0,0,0,1.38,2.995L132.573,432.6a10.144,10.144,0,0,0,9.136-.276l41.306-23.268C184.616,408.183,185.375,406.983,185.306,405.865Z" transform="translate(-47.391 -276.659)"/><path class="av" d="M132.586,340.821,87.65,314.2c-2.332-1.38-2.015-3.726.7-5.258l41.306-23.282a10.144,10.144,0,0,1,9.136-.276l44.936,26.581c2.332,1.38,2,3.726-.718,5.258l-41.292,23.31A10.185,10.185,0,0,1,132.586,340.821Z" transform="translate(-47.417 -284.429)"/><path class="aw" d="M128.66,326.666l-27.533-16.285c-1.38-.842-1.228-2.277.442-3.216l25.3-14.256a6.238,6.238,0,0,1,5.6-.179l27.519,16.285c1.38.842,1.242,2.291-.428,3.229l-25.3,14.2a6.238,6.238,0,0,1-5.6.221Z" transform="translate(-42.056 -281.494)"/><path class="ax" d="M126.844,377.734a5.934,5.934,0,0,0-2.47-4.844l-33.439-19.8a1.656,1.656,0,0,0-1.67-.152h0l-.193.11L80.79,358l36.434,26.829,8.419-5.024a1.379,1.379,0,0,0,.511-.29h0a2.5,2.5,0,0,0,.69-1.78Z" transform="translate(-49.431 -258.451)"/><path class="ay" d="M115.99,383.243l-33.44-19.749a5.934,5.934,0,0,1-2.47-4.9h0c0-1.849,1.214-2.664,2.622-1.835l33.426,19.777a5.934,5.934,0,0,1,2.47,4.844h0C118.612,383.257,117.384,384.085,115.99,383.243Z" transform="translate(-49.701 -257.06)"/><path class="az" d="M126.8,367.039a5.934,5.934,0,0,0-2.47-4.844L90.894,342.446a1.67,1.67,0,0,0-1.656-.166h0l-.207.124-8.281,4.941,36.476,26.829,8.4-5.023a1.381,1.381,0,0,0,.524-.3h0a2.4,2.4,0,0,0,.649-1.808Z" transform="translate(-49.446 -262.496)"/><path class="ba" d="M115.965,372.551,82.526,352.8A5.976,5.976,0,0,1,80,347.958h0c0-1.849,1.214-2.677,2.622-1.849l33.44,19.749a5.99,5.99,0,0,1,2.47,4.858h0C118.546,372.551,117.373,373.379,115.965,372.551Z" transform="translate(-49.732 -261.107)"/><path class="bb" d="M126.874,356.391a5.989,5.989,0,0,0-2.47-4.872l-33.44-19.735a1.656,1.656,0,0,0-1.656-.152h0l-.207.124L80.82,336.7,117.3,363.526l8.4-5.024a1.38,1.38,0,0,0,.524-.3h0a2.4,2.4,0,0,0,.649-1.808Z" transform="translate(-49.42 -266.546)"/><path class="bc" d="M116.02,361.9,82.58,342.152a5.976,5.976,0,0,1-2.47-4.844h0c0-1.849,1.214-2.677,2.622-1.849l33.44,19.749a5.934,5.934,0,0,1,2.47,4.844h0C118.6,361.9,117.428,362.729,116.02,361.9Z" transform="translate(-49.69 -265.155)"/><path class="bd" d="M126.874,345.729a5.934,5.934,0,0,0-2.47-4.844l-33.44-19.749a1.628,1.628,0,0,0-1.656-.152h0l-.207.11-8.281,4.954,36.448,26.76,8.4-5.024a1.38,1.38,0,0,0,.524-.29h0a2.443,2.443,0,0,0,.676-1.767Z" transform="translate(-49.42 -270.595)"/><path class="be" d="M116.02,351.251,82.58,331.5a6.017,6.017,0,0,1-2.47-4.858h0c0-1.835,1.214-2.664,2.622-1.835l33.44,19.708a5.934,5.934,0,0,1,2.47,4.844h0C118.6,351.251,117.428,352.079,116.02,351.251Z" transform="translate(-49.69 -269.203)"/><path class="bf" d="M101.13,310.411l4.6,2.76,21.143-11.91a6.238,6.238,0,0,1,5.6-.179l22.937,13.566,4.14-2.346c1.67-.938,1.863-2.374.428-3.216L132.458,292.8a6.238,6.238,0,0,0-5.6.166l-25.3,14.256C99.929,308.12,99.708,309.569,101.13,310.411Z" transform="translate(-42.059 -281.469)"/><path class="bg" d="M161.452,327.222,130.11,345.315v-4.872l31.342-18.093Z" transform="translate(-30.685 -270.015)"/><path class="bh" d="M155.469,334l-9.619,5.548v-4.858l9.619-5.562Z" transform="translate(-24.703 -267.438)"/><path class="bi" d="M148.189,339.552,130.11,349.985v-4.872l18.079-10.433Z" transform="translate(-30.685 -265.329)"/><path class="bj" d="M158.962,340.532l-22.3,12.9v-4.872l22.3-12.9Z" transform="translate(-28.196 -264.956)"/><path class="bk" d="M135.492,351.412l-5.382,3.078v-4.872l5.382-3.078Z" transform="translate(-30.685 -260.821)"/><path class="bl" d="M161.452,347.338,130.11,365.431v-4.872l31.342-18.079Z" transform="translate(-30.685 -262.364)"/><path class="bm" d="M155.469,354.152,145.85,359.7v-4.858l9.619-5.562Z" transform="translate(-24.703 -259.78)"/><path class="bn" d="M148.189,359.7,130.11,370.135v-4.872l18.079-10.433Z" transform="translate(-30.685 -257.67)"/><path class="bo" d="M158.962,360.682l-22.3,12.9v-4.872l22.3-12.9Z" transform="translate(-28.196 -257.298)"/><path class="bp" d="M135.492,371.562l-5.382,3.064v-4.858l5.382-3.078Z" transform="translate(-30.685 -253.162)"/><path class="bq" d="M161.452,367.142,130.11,385.221v-4.858l31.342-18.093Z" transform="translate(-30.685 -254.842)"/></g><g transform="translate(184.286 506.976)"><path class="br" d="M191.444,418.142v-42.52l-36.614-.731v42.217a.925.925,0,0,0,.524,1.1l16.561,9.826a3.754,3.754,0,0,0,3.381-.11l15.264-8.6C191.209,419,191.5,418.542,191.444,418.142Z" transform="translate(-125.469 -364.485)"/><path class="bs" d="M171.959,388.175,155.4,378.349c-.856-.5-.745-1.38.262-1.946l15.264-8.6a3.8,3.8,0,0,1,3.381-.11l16.561,9.826c.856.511.745,1.38-.262,1.946l-15.264,8.612a3.754,3.754,0,0,1-3.381.1Z" transform="translate(-125.458 -367.35)"/><path class="ap" d="M163.793,394.034l-4.637-2.677a1.38,1.38,0,0,1-.566-1.076v-7.494c0-.414.262-.607.566-.428l4.637,2.677a1.38,1.38,0,0,1,.552,1.076v7.494C164.359,394.02,164.11,394.213,163.793,394.034Z" transform="translate(-124.026 -361.672)"/></g><g transform="translate(196.028 252.985)"><path class="bt" d="M292.306,319.8l.138-78.568a7.521,7.521,0,0,0-3.133-5.99l-89.526-51.574a2.07,2.07,0,0,0-1.974-.193h0l-3.492,2.015,2.346,3.326v76.195A7.521,7.521,0,0,0,199.8,271l87.346,53.52.856-.359,3.243-1.863h0A2.76,2.76,0,0,0,292.306,319.8Z" transform="translate(-122.188 -183.311)"/><path class="bu" d="M286.329,323.925,196.8,272.351a7.494,7.494,0,0,1-3.133-5.99V187.406c0-2.3,1.38-3.367,3.147-2.374l89.526,51.574a7.535,7.535,0,0,1,3.133,5.99v76.636C289.476,321.537,288.068,324.932,286.329,323.925Z" transform="translate(-122.435 -182.798)"/><path class="bv" d="M283.074,314.092l-85.234-49.1a3.34,3.34,0,0,1-1.38-2.65V190.285c0-1.021.621-1.491,1.38-1.049l85.234,49.09a3.312,3.312,0,0,1,1.38,2.65v72.068C284.468,314.065,283.847,314.561,283.074,314.092Z" transform="translate(-121.375 -181.122)"/><path class="bw" d="M228.749,206.886l-.359-.207a1.9,1.9,0,0,1-.8-1.532h0c0-.607.359-.869.8-.621l.359.207a2,2,0,0,1,.814,1.546h0C229.536,206.872,229.191,207.148,228.749,206.886Z" transform="translate(-109.543 -175.282)"/><path class="bx" d="M305.236,299.263l-5.065-.414-85.565-49.324a7.48,7.48,0,0,0-6.762.29l-62.435,36.131-3.3-.276v3.409h0a1.946,1.946,0,0,0,1.145,1.78l89.526,51.574a7.535,7.535,0,0,0,6.762-.29l64.091-37.1a2.76,2.76,0,0,0,1.642-2.194h0Z" transform="translate(-142.032 -158.398)"/><path class="by" d="M232.748,339.867l-89.526-51.56c-1.725-1.008-1.518-2.76.483-3.906L207.8,247.263a7.535,7.535,0,0,1,6.762-.29l89.526,51.574c1.739.994,1.518,2.76-.483,3.892l-64.091,37.1a7.535,7.535,0,0,1-6.762.331Z" transform="translate(-142.054 -159.366)"/><path class="bz" d="M250.049,321.345,164.8,272.255c-.759-.442-.662-1.214.221-1.725L200.9,249.746a3.312,3.312,0,0,1,2.981-.124l85.248,49.09c.759.442.662,1.214-.221,1.725L253.1,321.22A3.312,3.312,0,0,1,250.049,321.345Z" transform="translate(-133.602 -158.219)"/><path class="ca" d="M193.036,305.914l-23.6-13.566c-.414-.235-.359-.649.11-.925l19.1-11.041a1.753,1.753,0,0,1,1.587,0l23.613,13.594c.4.235.345.649-.124.911l-19.1,11.041A1.753,1.753,0,0,1,193.036,305.914Z" transform="translate(-131.752 -146.487)"/><path class="cb" d="M164.8,272.266l.428.248,35.606-20.7a3.312,3.312,0,0,1,2.981-.124l84.806,48.855.221-.138c.883-.511.98-1.283.221-1.725l-85.248-49.09a3.312,3.312,0,0,0-2.981.124L164.954,270.5C164.14,271.052,164.044,271.825,164.8,272.266Z" transform="translate(-133.604 -158.23)"/><path class="cc" d="M169.438,292.378l.676.386,18.535-10.751a1.752,1.752,0,0,1,1.587-.069L213.1,295.138l.566-.331c.469-.262.524-.676.124-.911L190.181,280.3a1.753,1.753,0,0,0-1.587,0l-19.1,11.041C169.079,291.7,169.024,292.116,169.438,292.378Z" transform="translate(-131.753 -146.517)"/><path class="cd" d="M192.912,303.353l-22.647-13.042c-.386-.221-.607-.455-.5-.524l4.72-2.76a1.152,1.152,0,0,1,.925.29l22.647,13.042c.386.235.607.469.5.538l-4.72,2.76a1.38,1.38,0,0,1-.925-.3Z" transform="translate(-131.531 -143.899)"/><path class="ce" d="M191.56,256.6l-2.388-1.38c-.607-.345-.524-.952.166-1.38l.98-.552a2.567,2.567,0,0,1,2.346-.1l2.388,1.38c.607.359.524.952-.166,1.38l-.98.552a2.622,2.622,0,0,1-2.346.1Z" transform="translate(-124.3 -156.838)"/><path class="ce" d="M195.88,259.086l-2.388-1.38c-.607-.345-.524-.952.166-1.38l.966-.566a2.622,2.622,0,0,1,2.346-.1l2.4,1.38c.593.345.524.952-.166,1.38l-.98.566A2.622,2.622,0,0,1,195.88,259.086Z" transform="translate(-122.658 -155.898)"/><path class="ce" d="M200.2,261.576l-2.388-1.38c-.607-.345-.524-.952.166-1.38l.966-.566a2.622,2.622,0,0,1,2.346-.1l2.4,1.38c.593.345.524.952-.166,1.38l-.98.566a2.622,2.622,0,0,1-2.346.1Z" transform="translate(-121.016 -154.951)"/><path class="ce" d="M204.52,264.066l-2.388-1.38c-.607-.345-.524-.952.166-1.38l.966-.566a2.622,2.622,0,0,1,2.346-.1l2.4,1.38c.593.345.524.952-.166,1.38l-.98.566A2.622,2.622,0,0,1,204.52,264.066Z" transform="translate(-119.374 -154.005)"/><path class="ce" d="M208.84,266.558l-2.388-1.38c-.607-.345-.524-.952.166-1.38l.966-.566a2.581,2.581,0,0,1,2.346-.1l2.4,1.38c.593.359.524.966-.179,1.38l-.966.552a2.622,2.622,0,0,1-2.346.11Z" transform="translate(-117.732 -153.06)"/><path class="ce" d="M213.161,269.006l-2.388-1.38c-.607-.345-.538-.952.166-1.38l.966-.552a2.581,2.581,0,0,1,2.346-.11l2.388,1.38c.607.345.538.952-.166,1.38l-.966.566A2.622,2.622,0,0,1,213.161,269.006Z" transform="translate(-116.091 -152.127)"/><path class="ce" d="M217.482,271.526l-2.4-1.38c-.593-.345-.524-.952.179-1.38l.966-.566a2.622,2.622,0,0,1,2.346-.1l2.388,1.38c.607.345.538.952-.166,1.38l-.966.566a2.622,2.622,0,0,1-2.346.1Z" transform="translate(-114.45 -151.17)"/><path class="ce" d="M221.772,274.006l-2.4-1.38c-.593-.345-.524-.952.179-1.38l.966-.566a2.622,2.622,0,0,1,2.346-.1l2.388,1.38c.607.345.524.952-.166,1.38l-.966.566a2.622,2.622,0,0,1-2.346.1Z" transform="translate(-112.819 -150.227)"/><path class="ce" d="M226.122,276.506l-2.4-1.38c-.593-.345-.524-.952.166-1.38l.98-.566a2.622,2.622,0,0,1,2.346-.1l2.388,1.38c.607.345.524.952-.166,1.38l-.966.552a2.581,2.581,0,0,1-2.346.11Z" transform="translate(-111.166 -149.277)"/><path class="ce" d="M230.442,279l-2.4-1.38c-.593-.359-.524-.966.166-1.38l.98-.552a2.622,2.622,0,0,1,2.346-.11l2.388,1.38c.607.345.524.952-.166,1.38l-.966.566A2.581,2.581,0,0,1,230.442,279Z" transform="translate(-109.524 -148.325)"/><path class="ce" d="M234.892,281.556l-2.4-1.38c-.593-.345-.524-.952.166-1.38l.98-.566a2.622,2.622,0,0,1,2.346-.1l2.388,1.38c.607.345.524.952-.166,1.38l-.966.566a2.622,2.622,0,0,1-2.346.1Z" transform="translate(-107.833 -147.357)"/><path class="ce" d="M239.212,284l-2.4-1.38c-.593-.345-.524-.952.166-1.38l.98-.552a2.567,2.567,0,0,1,2.346-.1l2.388,1.38c.607.359.524.952-.166,1.38l-.966.552A2.622,2.622,0,0,1,239.212,284Z" transform="translate(-106.191 -146.424)"/><path class="ce" d="M243.532,286.526l-2.4-1.38c-.593-.345-.524-.952.166-1.38l.98-.552a2.581,2.581,0,0,1,2.346-.11l2.388,1.38c.607.345.524.952-.166,1.38l-.966.566a2.622,2.622,0,0,1-2.346.1Z" transform="translate(-104.549 -145.468)"/><path class="ce" d="M247.84,289.006l-2.388-1.38c-.607-.345-.524-.952.166-1.38l.966-.566a2.65,2.65,0,0,1,2.36-.1l2.388,1.38c.607.345.524.952-.166,1.38l-.98.566A2.622,2.622,0,0,1,247.84,289.006Z" transform="translate(-102.908 -144.526)"/><path class="ce" d="M186.634,259.834l-2.512-1.38c-.607-.345-.524-.952.166-1.38l2.9-1.684a2.622,2.622,0,0,1,2.346-.1l2.512,1.449c.607.345.538.952-.166,1.38l-2.9,1.684A2.622,2.622,0,0,1,186.634,259.834Z" transform="translate(-126.219 -156.038)"/><path class="ce" d="M190.954,262.312l-2.512-1.38c-.607-.345-.524-.952.166-1.38l2.9-1.67a2.581,2.581,0,0,1,2.346-.1l2.512,1.449c.607.345.538.952-.166,1.38l-2.9,1.67A2.622,2.622,0,0,1,190.954,262.312Z" transform="translate(-124.577 -155.093)"/><path class="ce" d="M195.313,264.834l-2.512-1.38c-.593-.345-.524-.952.166-1.38l2.9-1.684a2.622,2.622,0,0,1,2.346-.1l2.526,1.449c.593.345.524.952-.166,1.38l-2.912,1.684a2.622,2.622,0,0,1-2.346.028Z" transform="translate(-122.918 -154.138)"/><path class="ce" d="M199.638,267.314l-2.526-1.38c-.607-.345-.524-.952.166-1.38l2.9-1.684a2.622,2.622,0,0,1,2.346-.1l2.526,1.449c.593.345.524.952-.179,1.38l-2.9,1.67A2.581,2.581,0,0,1,199.638,267.314Z" transform="translate(-121.282 -153.195)"/><path class="ce" d="M203.954,269.821l-2.512-1.449c-.607-.345-.524-.952.166-1.38l2.9-1.67a2.622,2.622,0,0,1,2.346-.11l2.512,1.449c.607.359.538.952-.166,1.38l-2.9,1.67A2.567,2.567,0,0,1,203.954,269.821Z" transform="translate(-119.636 -152.266)"/><path class="ce" d="M208.326,272.314l-2.526-1.38c-.593-.345-.524-.952.166-1.38l2.912-1.684a2.622,2.622,0,0,1,2.346-.1l2.512,1.449c.593.345.524.952-.166,1.38l-2.9,1.67A2.581,2.581,0,0,1,208.326,272.314Z" transform="translate(-117.977 -151.295)"/><path class="ce" d="M212.633,274.8l-2.512-1.38c-.593-.359-.524-.966.166-1.38l2.9-1.67a2.581,2.581,0,0,1,2.346-.1l2.526,1.38c.593.359.524.966-.166,1.38l-2.912,1.67A2.567,2.567,0,0,1,212.633,274.8Z" transform="translate(-116.335 -150.346)"/><path class="ce" d="M217.005,277.314l-2.512-1.38c-.607-.345-.538-.952.166-1.38l2.9-1.684a2.622,2.622,0,0,1,2.346-.1l2.512,1.449c.607.345.524.952-.166,1.38l-2.9,1.684a2.622,2.622,0,0,1-2.346.028Z" transform="translate(-114.677 -149.395)"/><path class="ce" d="M221.326,279.831l-2.526-1.449c-.593-.359-.524-.952.179-1.38l2.9-1.67a2.567,2.567,0,0,1,2.346-.1l2.512,1.449c.593.345.524.952-.166,1.38l-2.9,1.67A2.622,2.622,0,0,1,221.326,279.831Z" transform="translate(-113.036 -148.461)"/><path class="ce" d="M225.65,282.34l-2.539-1.477c-.593-.345-.524-.952.166-1.38l2.912-1.67a2.581,2.581,0,0,1,2.346-.11l2.512,1.38c.593.345.524.952-.166,1.38l-2.9,1.684A2.622,2.622,0,0,1,225.65,282.34Z" transform="translate(-111.398 -147.52)"/><path class="ce" d="M230.005,284.829l-2.512-1.449c-.607-.345-.538-.952.166-1.38l2.9-1.67a2.622,2.622,0,0,1,2.346-.1l2.512,1.449c.607.345.524.952-.166,1.38l-2.9,1.67a2.622,2.622,0,0,1-2.346.1Z" transform="translate(-109.736 -146.559)"/><path class="ce" d="M234.325,287.331l-2.512-1.449c-.607-.345-.538-.952.166-1.38l2.9-1.67a2.622,2.622,0,0,1,2.346-.11l2.512,1.38c.607.345.524.952-.166,1.38l-2.9,1.67A2.622,2.622,0,0,1,234.325,287.331Z" transform="translate(-108.094 -145.611)"/><path class="ce" d="M238.65,289.8l-2.539-1.449c-.593-.345-.524-.952.179-1.38l2.9-1.684a2.622,2.622,0,0,1,2.346-.1l2.512,1.449c.607.345.524.952-.166,1.38l-2.9,1.684a2.622,2.622,0,0,1-2.332.1Z" transform="translate(-106.457 -144.674)"/><path class="ce" d="M243,292.331l-2.512-1.449c-.607-.345-.524-.952.166-1.38l2.9-1.67a2.622,2.622,0,0,1,2.346-.11l2.512,1.38c.607.359.524.952-.166,1.38l-2.9,1.67a2.567,2.567,0,0,1-2.346.179Z" transform="translate(-104.794 -143.711)"/><path class="ce" d="M181.667,262.8l-2.553-1.449c-.607-.345-.538-.952.166-1.38l2.9-1.684a2.622,2.622,0,0,1,2.346-.1l2.512,1.449c.607.345.524.952-.166,1.38l-2.9,1.684a2.622,2.622,0,0,1-2.3.1Z" transform="translate(-128.125 -154.936)"/><path class="ce" d="M185.976,265.314l-2.526-1.38c-.593-.345-.524-.952.179-1.38l2.9-1.684a2.622,2.622,0,0,1,2.346-.1l2.512,1.449c.607.345.524.952-.166,1.38l-2.9,1.684a2.622,2.622,0,0,1-2.346.028Z" transform="translate(-126.472 -153.956)"/><path class="ce" d="M190.334,267.8l-2.512-1.449c-.607-.345-.524-.952.166-1.38l2.9-1.684a2.622,2.622,0,0,1,2.346-.1l2.512,1.449c.607.345.524.952-.166,1.38l-2.9,1.684A2.622,2.622,0,0,1,190.334,267.8Z" transform="translate(-124.813 -153.036)"/><path class="ce" d="M194.655,270.314l-2.512-1.38c-.607-.345-.538-.952.166-1.38l2.9-1.684a2.622,2.622,0,0,1,2.346-.1l2.512,1.449c.607.345.524.952-.166,1.38l-2.9,1.684A2.622,2.622,0,0,1,194.655,270.314Z" transform="translate(-123.172 -152.055)"/><path class="ce" d="M198.975,272.783l-2.512-1.449c-.607-.345-.538-.952.166-1.38l2.9-1.684a2.622,2.622,0,0,1,2.346-.1l2.512,1.449c.607.345.524.952-.166,1.38l-2.9,1.67A2.581,2.581,0,0,1,198.975,272.783Z" transform="translate(-121.53 -151.143)"/><path class="ce" d="M203.334,275.314l-2.512-1.38c-.607-.345-.524-.952.166-1.38l2.9-1.684a2.622,2.622,0,0,1,2.346-.1l2.512,1.449c.607.345.524.952-.166,1.38l-2.9,1.684a2.622,2.622,0,0,1-2.346.028Z" transform="translate(-119.872 -150.155)"/><path class="ce" d="M207.666,277.783l-2.553-1.449c-.607-.345-.524-.952.166-1.38l2.9-1.684a2.622,2.622,0,0,1,2.346-.1l2.512,1.449c.607.345.524.952-.166,1.38l-2.9,1.684a2.622,2.622,0,0,1-2.3.1Z" transform="translate(-118.241 -149.242)"/><path class="ce" d="M212.014,280.314l-2.512-1.38c-.607-.345-.524-.952.166-1.38l2.9-1.684a2.622,2.622,0,0,1,2.346-.1l2.526,1.449c.593.345.524.952-.179,1.38l-2.9,1.684a2.622,2.622,0,0,1-2.346.028Z" transform="translate(-116.573 -148.254)"/><path class="ce" d="M216.334,282.783l-2.512-1.449c-.607-.345-.524-.952.166-1.38l2.9-1.684a2.622,2.622,0,0,1,2.346-.1l2.512,1.449c.607.345.538.952-.166,1.38l-2.9,1.684A2.622,2.622,0,0,1,216.334,282.783Z" transform="translate(-114.931 -147.342)"/><path class="ce" d="M220.666,285.271l-2.553-1.449c-.607-.345-.524-.952.166-1.38l2.9-1.67a2.581,2.581,0,0,1,2.346-.1l2.512,1.449c.607.345.538.952-.166,1.38l-2.9,1.67a2.622,2.622,0,0,1-2.3.1Z" transform="translate(-113.3 -146.393)"/><path class="ce" d="M225.013,287.783l-2.512-1.449c-.593-.345-.524-.952.166-1.38l2.9-1.684a2.622,2.622,0,0,1,2.346-.1l2.526,1.449c.593.345.524.952-.166,1.38l-2.912,1.684a2.622,2.622,0,0,1-2.346.1Z" transform="translate(-111.63 -145.442)"/><path class="ce" d="M229.334,290.273l-2.512-1.449c-.607-.345-.524-.952.166-1.38l2.9-1.684a2.622,2.622,0,0,1,2.346-.1l2.526,1.449c.593.345.524.952-.179,1.38l-2.9,1.67a2.581,2.581,0,0,1-2.346.11Z" transform="translate(-109.989 -144.495)"/><path class="ce" d="M233.666,292.751l-2.553-1.449c-.607-.345-.524-.952.166-1.38l2.9-1.67a2.622,2.622,0,0,1,2.346-.11l2.512,1.38c.607.359.538.952-.166,1.38l-2.9,1.67A2.567,2.567,0,0,1,233.666,292.751Z" transform="translate(-108.359 -143.551)"/><path class="ce" d="M238.013,295.273l-2.512-1.449c-.593-.345-.524-.952.166-1.38l2.912-1.684a2.622,2.622,0,0,1,2.346-.1l2.512,1.449c.593.345.524.952-.166,1.38l-2.912,1.67a2.581,2.581,0,0,1-2.346.11Z" transform="translate(-106.689 -142.595)"/><path class="ce" d="M182.337,269.148l-8.4-4.844c-.607-.345-.524-.952.166-1.38l2.9-1.684a2.622,2.622,0,0,1,2.346-.1l8.419,4.844c.593.345.524.952-.166,1.38l-2.912,1.684A2.622,2.622,0,0,1,182.337,269.148Z" transform="translate(-130.092 -153.815)"/><path class="ce" d="M185.124,270.753l-2.512-1.449c-.607-.345-.524-.952.166-1.38l2.9-1.684a2.622,2.622,0,0,1,2.346-.1l2.512,1.38c.607.345.538.952-.166,1.38l-2.9,1.67a2.581,2.581,0,0,1-2.346.179Z" transform="translate(-126.793 -151.914)"/><path class="ce" d="M189.444,273.212l-2.512-1.38c-.607-.359-.524-.966.166-1.38l2.9-1.67a2.581,2.581,0,0,1,2.346-.1l2.512,1.38c.607.359.538.966-.166,1.38l-2.9,1.67A2.567,2.567,0,0,1,189.444,273.212Z" transform="translate(-125.151 -150.95)"/><path class="ce" d="M193.8,275.723l-2.512-1.449c-.607-.345-.524-.952.166-1.38l2.9-1.67a2.581,2.581,0,0,1,2.346-.11l2.512,1.449c.607.345.524.952-.166,1.38l-2.9,1.684A2.622,2.622,0,0,1,193.8,275.723Z" transform="translate(-123.494 -150.025)"/><path class="ce" d="M198.124,278.241l-2.512-1.449c-.607-.359-.524-.952.166-1.38l2.9-1.67a2.581,2.581,0,0,1,2.346-.1l2.526,1.449c.593.345.524.952-.179,1.38l-2.9,1.67a2.622,2.622,0,0,1-2.346.1Z" transform="translate(-121.852 -149.065)"/><path class="ce" d="M202.444,280.723l-2.512-1.449c-.607-.345-.524-.952.166-1.38l2.9-1.67a2.581,2.581,0,0,1,2.346-.11l2.512,1.449c.607.345.538.952-.166,1.38l-2.9,1.684A2.622,2.622,0,0,1,202.444,280.723Z" transform="translate(-120.21 -148.125)"/><path class="ce" d="M206.806,283.239l-2.526-1.449c-.593-.345-.524-.952.166-1.38l2.912-1.67a2.622,2.622,0,0,1,2.346-.1l2.512,1.449c.593.345.524.952-.166,1.38l-2.9,1.67A2.622,2.622,0,0,1,206.806,283.239Z" transform="translate(-118.555 -147.163)"/><path class="ce" d="M211.123,285.721l-2.512-1.449c-.593-.345-.524-.952.166-1.38l2.9-1.67a2.622,2.622,0,0,1,2.346-.11l2.526,1.449c.593.345.524.952-.166,1.38l-2.94,1.684a2.567,2.567,0,0,1-2.319.1Z" transform="translate(-116.909 -146.223)"/><path class="ce" d="M215.444,288.213l-2.512-1.449c-.607-.345-.524-.952.166-1.38L216,283.7a2.622,2.622,0,0,1,2.346-.1l2.526,1.449c.593.345.524.952-.179,1.38l-2.9,1.684a2.622,2.622,0,0,1-2.346.1Z" transform="translate(-115.269 -145.278)"/><path class="ce" d="M219.806,290.721l-2.526-1.449c-.593-.345-.524-.952.179-1.38l2.9-1.67a2.622,2.622,0,0,1,2.346-.11l2.512,1.449c.593.359.524.966-.166,1.38l-2.9,1.67A2.581,2.581,0,0,1,219.806,290.721Z" transform="translate(-113.614 -144.322)"/><path class="ce" d="M224.136,293.213l-2.526-1.449c-.593-.345-.524-.952.166-1.38l2.912-1.684a2.622,2.622,0,0,1,2.346-.1l2.512,1.449c.593.345.524.952-.166,1.38l-2.9,1.684A2.622,2.622,0,0,1,224.136,293.213Z" transform="translate(-111.968 -143.378)"/><path class="ce" d="M228.443,295.7l-2.512-1.449c-.593-.345-.524-.952.166-1.38l2.9-1.684a2.622,2.622,0,0,1,2.346-.1l2.526,1.449c.593.345.524.952-.166,1.38l-2.912,1.684a2.622,2.622,0,0,1-2.346.1Z" transform="translate(-110.326 -142.431)"/><path class="ce" d="M227.8,302.243l-2.512-1.449c-.593-.345-.524-.952.166-1.38l9.868-5.7a2.581,2.581,0,0,1,2.346-.11l2.512,1.449c.607.345.524.952-.166,1.38l-9.868,5.714A2.622,2.622,0,0,1,227.8,302.243Z" transform="translate(-110.569 -141.477)"/><path class="ce" d="M171.406,268.652l-2.526-1.38c-.593-.359-.524-.952.179-1.38l2.9-1.67a2.567,2.567,0,0,1,2.346-.1l2.512,1.449c.607.345.524.952-.166,1.38l-2.9,1.67a2.622,2.622,0,0,1-2.346.028Z" transform="translate(-132.01 -152.684)"/><path class="ce" d="M175.726,271.153,173.2,269.7c-.593-.345-.524-.952.166-1.38l2.912-1.67a2.581,2.581,0,0,1,2.346-.11l2.512,1.449c.593.345.524.952-.166,1.38l-2.9,1.684a2.622,2.622,0,0,1-2.346.1Z" transform="translate(-130.368 -151.762)"/><path class="ce" d="M180.085,273.65l-2.512-1.38c-.607-.345-.538-.952.166-1.38l2.9-1.67a2.622,2.622,0,0,1,2.346-.1l2.512,1.449c.607.345.524.952-.166,1.38l-2.9,1.67a2.622,2.622,0,0,1-2.346.028Z" transform="translate(-128.71 -150.782)"/><path class="ce" d="M184.405,276.151l-2.512-1.449c-.607-.345-.538-.952.166-1.38l2.9-1.67a2.622,2.622,0,0,1,2.346-.11l2.512,1.449c.607.345.524.952-.166,1.38l-2.9,1.67A2.622,2.622,0,0,1,184.405,276.151Z" transform="translate(-127.068 -149.86)"/><path class="ce" d="M206.762,289.01l-20.522-11.827c-.593-.345-.524-.952.179-1.38l2.9-1.684a2.622,2.622,0,0,1,2.263-.055l20.508,11.814c.607.359.538.966-.166,1.38l-2.9,1.67A2.622,2.622,0,0,1,206.762,289.01Z" transform="translate(-125.411 -148.904)"/><path class="ce" d="M206.084,288.643l-2.512-1.449c-.607-.345-.524-.952.166-1.38l2.9-1.67a2.581,2.581,0,0,1,2.346-.11l2.512,1.422c.607.345.538.952-.166,1.38l-2.9,1.684A2.622,2.622,0,0,1,206.084,288.643Z" transform="translate(-118.826 -145.114)"/><path class="ce" d="M210.4,291.133l-2.512-1.449c-.607-.345-.524-.952.166-1.38l2.9-1.684a2.622,2.622,0,0,1,2.346-.1l2.512,1.38c.607.345.524.952-.166,1.38l-2.9,1.684a2.622,2.622,0,0,1-2.346.166Z" transform="translate(-117.185 -144.168)"/><path class="ce" d="M214.8,293.643l-2.512-1.449c-.607-.345-.524-.952.166-1.38l2.9-1.67a2.581,2.581,0,0,1,2.346-.11l2.526,1.449c.593.345.524.952-.179,1.38l-2.9,1.684a2.622,2.622,0,0,1-2.346.1Z" transform="translate(-115.512 -143.214)"/><path class="ce" d="M219.084,296.133l-2.512-1.449c-.607-.345-.524-.952.166-1.38l2.9-1.684a2.622,2.622,0,0,1,2.346-.1l2.512,1.38c.607.345.538.952-.166,1.38l-2.9,1.684a2.622,2.622,0,0,1-2.346.166Z" transform="translate(-113.885 -142.268)"/><path class="ce" d="M223.4,298.631l-2.512-1.449c-.607-.345-.524-.952.166-1.38l2.9-1.711a2.622,2.622,0,0,1,2.346-.1l2.512,1.38c.607.345.538.952-.166,1.38l-2.9,1.684a2.622,2.622,0,0,1-2.346.193Z" transform="translate(-112.243 -141.329)"/><path class="cf" d="M191.492,255.916l-2.4-1.38c-.593-.345-.524-.952.166-1.38l.98-.566a2.622,2.622,0,0,1,2.346-.1l2.388,1.38c.607.345.524.952-.166,1.38l-.966.552A2.581,2.581,0,0,1,191.492,255.916Z" transform="translate(-124.329 -157.103)"/><path class="cf" d="M195.772,258.395l-2.4-1.38c-.593-.359-.524-.966.166-1.38l.98-.552a2.622,2.622,0,0,1,2.346-.11l2.388,1.38c.607.345.524.952-.166,1.38l-.966.566A2.581,2.581,0,0,1,195.772,258.395Z" transform="translate(-122.702 -156.158)"/><path class="cf" d="M200.132,260.886l-2.4-1.38c-.593-.345-.524-.952.166-1.38l.98-.566a2.622,2.622,0,0,1,2.346-.1l2.388,1.38c.607.345.524.952-.166,1.38l-.966.566a2.622,2.622,0,0,1-2.346.1Z" transform="translate(-121.045 -155.214)"/><path class="cf" d="M204.454,263.376l-2.4-1.38c-.607-.345-.524-.952.166-1.38l.98-.566a2.622,2.622,0,0,1,2.346-.1l2.388,1.38c.607.345.524.952-.166,1.38l-.966.566A2.622,2.622,0,0,1,204.454,263.376Z" transform="translate(-119.404 -154.267)"/><path class="cf" d="M208.77,265.866l-2.388-1.38c-.607-.345-.524-.952.166-1.38l.966-.566a2.622,2.622,0,0,1,2.346-.1l2.4,1.38c.593.345.524.952-.166,1.38l-.98.552A2.581,2.581,0,0,1,208.77,265.866Z" transform="translate(-117.758 -153.321)"/><path class="cf" d="M213.08,268.345l-2.388-1.38c-.607-.359-.524-.952.166-1.38l.966-.552a2.622,2.622,0,0,1,2.346-.11l2.4,1.38c.593.345.524.952-.166,1.38l-.98.552a2.567,2.567,0,0,1-2.346.11Z" transform="translate(-116.12 -152.377)"/><path class="cf" d="M217.4,270.836l-2.388-1.38c-.607-.345-.524-.952.166-1.38l.966-.566a2.622,2.622,0,0,1,2.346-.1l2.4,1.38c.593.345.524.952-.166,1.38l-.98.566a2.622,2.622,0,0,1-2.346.1Z" transform="translate(-114.478 -151.432)"/><path class="cf" d="M221.77,273.326l-2.388-1.38c-.607-.345-.524-.952.166-1.38l.966-.566a2.622,2.622,0,0,1,2.346-.1l2.4,1.38c.593.345.524.952-.179,1.38l-.966.566a2.622,2.622,0,0,1-2.346.1Z" transform="translate(-112.817 -150.485)"/><path class="cf" d="M226.041,275.816l-2.388-1.38c-.607-.345-.538-.952.166-1.38l.966-.566a2.622,2.622,0,0,1,2.346-.1l2.4,1.38c.593.345.524.952-.179,1.38l-.966.566A2.622,2.622,0,0,1,226.041,275.816Z" transform="translate(-111.196 -149.539)"/><path class="cf" d="M230.361,278.3l-2.388-1.38c-.607-.345-.538-.952.166-1.38l.966-.552a2.567,2.567,0,0,1,2.346-.1l2.388,1.38c.607.359.538.952-.166,1.38l-.966.552a2.622,2.622,0,0,1-2.346.1Z" transform="translate(-109.554 -148.591)"/><path class="cf" d="M234.771,280.866l-2.388-1.38c-.607-.345-.538-.952.166-1.38l.966-.566a2.622,2.622,0,0,1,2.346-.1l2.4,1.38c.593.345.524.952-.179,1.38l-.966.566A2.622,2.622,0,0,1,234.771,280.866Z" transform="translate(-107.877 -147.62)"/><path class="cf" d="M239.131,283.356l-2.388-1.38c-.607-.345-.538-.952.166-1.38l.966-.566a2.622,2.622,0,0,1,2.346-.1l2.388,1.38c.607.345.538.952-.166,1.38l-.966.552A2.581,2.581,0,0,1,239.131,283.356Z" transform="translate(-106.22 -146.673)"/><path class="cf" d="M243.452,285.835l-2.4-1.38c-.593-.359-.524-.966.179-1.38l.966-.552a2.622,2.622,0,0,1,2.346-.11l2.388,1.38c.607.345.538.952-.166,1.38l-.966.566a2.581,2.581,0,0,1-2.346.1Z" transform="translate(-104.579 -145.729)"/><path class="cf" d="M247.772,288.326l-2.4-1.38c-.593-.345-.524-.952.166-1.38l.98-.566a2.622,2.622,0,0,1,2.346-.1l2.388,1.38c.607.345.524.952-.166,1.38l-.966.566A2.622,2.622,0,0,1,247.772,288.326Z" transform="translate(-102.937 -144.784)"/><path class="cf" d="M186.553,259.163l-2.512-1.449c-.593-.345-.524-.952.166-1.38l2.912-1.684a2.622,2.622,0,0,1,2.346-.1L191.976,256c.593.345.524.952-.166,1.38l-2.9,1.684a2.65,2.65,0,0,1-2.36.1Z" transform="translate(-126.248 -156.32)"/><path class="cf" d="M190.873,261.653l-2.512-1.449c-.593-.345-.524-.952.166-1.38l2.9-1.684a2.622,2.622,0,0,1,2.346-.1l2.526,1.449c.593.345.524.952-.166,1.38l-2.912,1.67A2.581,2.581,0,0,1,190.873,261.653Z" transform="translate(-124.606 -155.373)"/><path class="cf" d="M195.246,264.163l-2.526-1.449c-.593-.345-.524-.952.179-1.38l2.9-1.684a2.622,2.622,0,0,1,2.346-.1L200.656,261c.607.345.524.952-.166,1.38l-2.9,1.684A2.622,2.622,0,0,1,195.246,264.163Z" transform="translate(-122.949 -154.419)"/><path class="cf" d="M199.566,266.653,197.04,265.2c-.593-.345-.524-.952.179-1.38l2.9-1.684a2.622,2.622,0,0,1,2.346-.1l2.512,1.449c.593.345.524.952-.166,1.38l-2.9,1.684a2.622,2.622,0,0,1-2.346.1Z" transform="translate(-121.307 -153.473)"/><path class="cf" d="M203.886,269.141l-2.526-1.449c-.593-.359-.524-.952.166-1.38l2.912-1.67a2.567,2.567,0,0,1,2.346-.1l2.512,1.38c.593.359.524.966-.166,1.38l-2.9,1.67a2.622,2.622,0,0,1-2.346.166Z" transform="translate(-119.665 -152.524)"/><path class="cf" d="M208.245,271.653l-2.512-1.449c-.607-.345-.538-.952.166-1.38l2.9-1.684a2.622,2.622,0,0,1,2.346-.1l2.512,1.449c.607.345.524.952-.166,1.38l-2.9,1.684a2.622,2.622,0,0,1-2.346.1Z" transform="translate(-118.007 -151.572)"/><path class="cf" d="M212.565,274.139l-2.512-1.449c-.607-.345-.538-.952.166-1.38l2.9-1.67a2.622,2.622,0,0,1,2.346-.1l2.512,1.449c.607.345.524.952-.166,1.38l-2.9,1.67a2.622,2.622,0,0,1-2.346.1Z" transform="translate(-116.365 -150.622)"/><path class="cf" d="M216.924,276.653l-2.512-1.449c-.607-.345-.524-.952.166-1.38l2.9-1.684a2.622,2.622,0,0,1,2.346-.1l2.512,1.449c.607.345.524.952-.166,1.38l-2.9,1.684A2.622,2.622,0,0,1,216.924,276.653Z" transform="translate(-114.706 -149.672)"/><path class="cf" d="M221.244,279.143l-2.512-1.449c-.607-.345-.524-.952.166-1.38l2.9-1.684a2.622,2.622,0,0,1,2.346-.1l2.512,1.449c.607.345.524.952-.166,1.38l-2.9,1.67a2.581,2.581,0,0,1-2.346.11Z" transform="translate(-113.064 -148.726)"/><path class="cf" d="M225.565,281.621l-2.512-1.449c-.607-.345-.538-.952.166-1.38l2.9-1.67a2.622,2.622,0,0,1,2.346-.11l2.512,1.38c.607.359.524.952-.166,1.38l-2.9,1.67a2.581,2.581,0,0,1-2.346.179Z" transform="translate(-111.424 -147.781)"/><path class="cf" d="M229.924,284.143l-2.512-1.449c-.607-.345-.524-.952.166-1.38l2.9-1.684a2.622,2.622,0,0,1,2.346-.1l2.512,1.449c.607.345.538.952-.166,1.38l-2.9,1.684a2.622,2.622,0,0,1-2.346.1Z" transform="translate(-109.765 -146.825)"/><path class="cf" d="M234.244,286.6l-2.512-1.38c-.607-.359-.524-.966.166-1.38l2.9-1.67a2.567,2.567,0,0,1,2.346-.1l2.512,1.38c.607.359.524.966-.166,1.38l-2.9,1.67a2.567,2.567,0,0,1-2.346.1Z" transform="translate(-108.123 -145.862)"/><path class="cf" d="M238.564,289.094l-2.512-1.38c-.607-.345-.524-.952.166-1.38l2.9-1.67a2.581,2.581,0,0,1,2.346-.11L243.974,286c.607.345.524.952-.166,1.38l-2.9,1.684A2.622,2.622,0,0,1,238.564,289.094Z" transform="translate(-106.481 -144.917)"/><path class="cf" d="M242.924,291.631l-2.512-1.449c-.607-.359-.524-.952.166-1.38l2.9-1.67a2.581,2.581,0,0,1,2.346-.1l2.526,1.38c.593.345.524.952-.179,1.38l-2.9,1.67a2.622,2.622,0,0,1-2.346.166Z" transform="translate(-104.824 -143.976)"/><path class="cf" d="M181.574,262.094l-2.512-1.38c-.607-.345-.524-.952.166-1.38l2.9-1.684a2.622,2.622,0,0,1,2.346-.1L186.984,259c.607.345.524.952-.166,1.38l-2.9,1.684a2.622,2.622,0,0,1-2.346.028Z" transform="translate(-128.142 -155.179)"/><path class="cf" d="M185.894,264.584l-2.512-1.38c-.607-.345-.524-.952.166-1.38l2.9-1.684a2.622,2.622,0,0,1,2.346-.1l2.5,1.408c.607.345.524.952-.166,1.38l-2.9,1.684a2.622,2.622,0,0,1-2.332.069Z" transform="translate(-126.5 -154.233)"/><path class="cf" d="M190.254,267.094l-2.512-1.38c-.607-.345-.524-.952.166-1.38l2.9-1.67a2.58,2.58,0,0,1,2.346-.11L195.678,264c.593.345.524.952-.179,1.38l-2.9,1.684A2.622,2.622,0,0,1,190.254,267.094Z" transform="translate(-124.843 -153.279)"/><path class="cf" d="M194.574,269.584l-2.512-1.38c-.607-.345-.524-.952.166-1.38l2.9-1.684a2.622,2.622,0,0,1,2.346-.1l2.512,1.449c.607.345.538.952-.166,1.38l-2.9,1.684A2.622,2.622,0,0,1,194.574,269.584Z" transform="translate(-123.201 -152.333)"/><path class="cf" d="M198.894,272.093l-2.512-1.449c-.607-.345-.524-.952.166-1.38l2.9-1.684a2.622,2.622,0,0,1,2.346-.1l2.512,1.449c.607.345.538.952-.166,1.38L201.24,272a2.622,2.622,0,0,1-2.346.1Z" transform="translate(-121.559 -151.405)"/><path class="cf" d="M203.253,274.584l-2.512-1.38c-.593-.345-.524-.952.166-1.38l2.9-1.684a2.622,2.622,0,0,1,2.346-.1l2.526,1.449c.593.345.524.952-.166,1.38l-2.912,1.684a2.622,2.622,0,0,1-2.346.028Z" transform="translate(-119.901 -150.432)"/><path class="cf" d="M207.555,277.093l-2.443-1.449c-.607-.345-.524-.952.166-1.38l2.9-1.684a2.622,2.622,0,0,1,2.346-.1l2.526,1.449c.593.345.524.952-.179,1.38L209.97,277a2.622,2.622,0,0,1-2.415.1Z" transform="translate(-118.241 -149.505)"/><path class="cf" d="M211.946,279.584l-2.526-1.38c-.593-.345-.524-.952.166-1.38l2.912-1.684a2.622,2.622,0,0,1,2.346-.1l2.512,1.449c.593.345.524.952-.166,1.38l-2.9,1.684a2.622,2.622,0,0,1-2.346.028Z" transform="translate(-116.601 -148.532)"/><path class="cf" d="M216.253,282.093l-2.512-1.449c-.593-.345-.524-.952.166-1.38l2.912-1.684a2.622,2.622,0,0,1,2.346-.1l2.512,1.449c.593.345.524.952-.166,1.38L218.6,282A2.622,2.622,0,0,1,216.253,282.093Z" transform="translate(-114.959 -147.604)"/><path class="cf" d="M220.554,284.583l-2.443-1.449c-.593-.345-.524-.952.166-1.38l2.9-1.684a2.622,2.622,0,0,1,2.346-.1l2.457,1.5c.593.345.524.952-.166,1.38l-2.912,1.67a2.581,2.581,0,0,1-2.346.055Z" transform="translate(-113.298 -146.658)"/><path class="cf" d="M224.946,287.093l-2.526-1.449c-.593-.345-.524-.952.179-1.38l2.9-1.684a2.622,2.622,0,0,1,2.346-.1l2.512,1.449c.607.345.524.952-.166,1.38l-2.9,1.684a2.622,2.622,0,0,1-2.346.1Z" transform="translate(-111.66 -145.704)"/><path class="cf" d="M229.266,289.583l-2.526-1.449c-.593-.345-.524-.952.166-1.38l2.912-1.684a2.622,2.622,0,0,1,2.346-.1l2.512,1.449c.593.345.524.952-.166,1.38l-2.9,1.684A2.622,2.622,0,0,1,229.266,289.583Z" transform="translate(-110.018 -144.757)"/><path class="cf" d="M233.554,292.071l-2.443-1.449c-.593-.359-.524-.952.166-1.38l2.912-1.67a2.567,2.567,0,0,1,2.346-.1l2.512,1.449c.593.345.524.952-.166,1.38l-2.9,1.67a2.65,2.65,0,0,1-2.429.1Z" transform="translate(-108.357 -143.809)"/><path class="cf" d="M237.945,294.583l-2.512-1.449c-.607-.345-.538-.952.166-1.38l2.9-1.684a2.622,2.622,0,0,1,2.346-.1l2.512,1.449c.607.345.524.952-.166,1.38l-2.9,1.684a2.622,2.622,0,0,1-2.346.1Z" transform="translate(-106.718 -142.857)"/><path class="cf" d="M182.271,268.458l-8.419-4.844c-.607-.345-.524-.952.166-1.38l2.9-1.684a2.622,2.622,0,0,1,2.346-.1l8.419,4.844c.607.345.524.952-.166,1.38l-2.9,1.684A2.622,2.622,0,0,1,182.271,268.458Z" transform="translate(-130.123 -154.077)"/><path class="cf" d="M185.043,270.063l-2.512-1.449c-.593-.345-.524-.952.166-1.38l2.912-1.684a2.622,2.622,0,0,1,2.346-.1l2.512,1.38c.593.345.524.952-.166,1.38l-2.9,1.684a2.65,2.65,0,0,1-2.36.166Z" transform="translate(-126.822 -152.177)"/><path class="cf" d="M189.363,272.534l-2.512-1.449c-.593-.345-.524-.952.166-1.38l2.953-1.615a2.622,2.622,0,0,1,2.346-.1l2.526,1.449c.593.345.524.952-.166,1.38l-2.912,1.67a2.622,2.622,0,0,1-2.4.041Z" transform="translate(-125.18 -151.211)"/><path class="cf" d="M193.684,275.031l-2.512-1.449c-.607-.345-.524-.952.166-1.38l2.9-1.67a2.622,2.622,0,0,1,2.346-.11l2.526,1.449c.593.345.524.952-.179,1.38l-2.9,1.67A2.622,2.622,0,0,1,193.684,275.031Z" transform="translate(-123.54 -150.286)"/><path class="cf" d="M198.056,277.553,195.53,276.1c-.593-.345-.524-.952.179-1.38l2.9-1.684a2.622,2.622,0,0,1,2.346-.1l2.512,1.449c.593.345.524.952-.166,1.38l-2.9,1.67a2.581,2.581,0,0,1-2.346.11Z" transform="translate(-121.88 -149.33)"/><path class="cf" d="M202.376,280.031l-2.526-1.449c-.593-.345-.524-.952.166-1.38l2.912-1.67a2.622,2.622,0,0,1,2.346-.11l2.512,1.449c.593.359.524.952-.166,1.38l-2.9,1.67A2.581,2.581,0,0,1,202.376,280.031Z" transform="translate(-120.239 -148.386)"/><path class="cf" d="M206.735,282.553l-2.512-1.449c-.607-.345-.538-.952.166-1.38l2.9-1.684a2.622,2.622,0,0,1,2.346-.1l2.512,1.449c.607.345.524.952-.166,1.38l-2.9,1.684A2.622,2.622,0,0,1,206.735,282.553Z" transform="translate(-118.581 -147.429)"/><path class="cf" d="M211.055,285.012l-2.512-1.38c-.607-.359-.538-.966.166-1.38l2.9-1.67a2.567,2.567,0,0,1,2.346-.1l2.512,1.38c.607.359.524.966-.166,1.38l-2.9,1.67A2.581,2.581,0,0,1,211.055,285.012Z" transform="translate(-116.939 -146.466)"/><path class="cf" d="M215.376,287.5l-2.526-1.449c-.593-.345-.524-.952.179-1.38l2.94-1.573a2.581,2.581,0,0,1,2.346-.11l2.512,1.449c.607.345.524.952-.166,1.38l-2.9,1.684a2.622,2.622,0,0,1-2.388,0Z" transform="translate(-115.297 -145.513)"/><path class="cf" d="M219.734,290.022l-2.512-1.38c-.607-.345-.524-.952.166-1.38l2.9-1.67a2.567,2.567,0,0,1,2.346-.1l2.512,1.449c.607.345.524.952-.166,1.38l-2.9,1.67a2.622,2.622,0,0,1-2.346.028Z" transform="translate(-113.638 -144.562)"/><path class="cf" d="M224.055,292.523l-2.512-1.449c-.607-.345-.538-.952.166-1.38l2.9-1.67a2.58,2.58,0,0,1,2.346-.11l2.512,1.449c.607.345.524.952-.166,1.38l-2.9,1.684a2.622,2.622,0,0,1-2.346.1Z" transform="translate(-111.998 -143.64)"/><path class="cf" d="M228.375,295.013l-2.512-1.449c-.607-.345-.538-.952.166-1.38l2.9-1.684a2.622,2.622,0,0,1,2.346-.1l2.512,1.449c.607.345.524.952-.166,1.38l-2.9,1.684A2.622,2.622,0,0,1,228.375,295.013Z" transform="translate(-110.356 -142.694)"/><path class="cf" d="M227.7,301.551,225.17,300.1c-.593-.345-.524-.952.179-1.38l9.854-5.7a2.622,2.622,0,0,1,2.346-.11l2.512,1.449c.607.345.524.952-.166,1.38l-9.854,5.658A2.622,2.622,0,0,1,227.7,301.551Z" transform="translate(-110.615 -141.738)"/><path class="cf" d="M171.324,267.964l-2.512-1.38c-.607-.345-.524-.952.166-1.38l2.9-1.684a2.622,2.622,0,0,1,2.346-.1l2.512,1.449c.607.345.524.952-.166,1.38l-2.9,1.67A2.581,2.581,0,0,1,171.324,267.964Z" transform="translate(-132.038 -152.948)"/><path class="cf" d="M175.653,270.461l-2.539-1.449c-.607-.345-.538-.952.166-1.38l2.9-1.67a2.622,2.622,0,0,1,2.346-.11l2.512,1.449c.607.359.524.952-.166,1.38l-2.9,1.67a2.581,2.581,0,0,1-2.319.11Z" transform="translate(-130.405 -152.023)"/><path class="cf" d="M180,272.964l-2.512-1.38c-.607-.345-.524-.952.166-1.38l2.9-1.684a2.622,2.622,0,0,1,2.346-.1l2.512,1.449c.607.345.538.952-.166,1.38l-2.9,1.67A2.581,2.581,0,0,1,180,272.964Z" transform="translate(-128.739 -151.048)"/><path class="cf" d="M184.324,275.442l-2.512-1.38c-.607-.359-.524-.966.166-1.38l2.9-1.67a2.581,2.581,0,0,1,2.346-.1l2.512,1.38c.607.359.538.966-.166,1.38l-2.9,1.67a2.567,2.567,0,0,1-2.346.1Z" transform="translate(-127.097 -150.103)"/><path class="cf" d="M206.648,288.331,186.112,276.5c-.607-.345-.524-.952.166-1.38l2.9-1.67a2.581,2.581,0,0,1,2.346-.11l20.522,11.827c.593.345.524.952-.166,1.38l-2.912,1.67A2.622,2.622,0,0,1,206.648,288.331Z" transform="translate(-125.463 -149.178)"/><path class="cf" d="M206,287.951l-2.512-1.449c-.593-.345-.524-.952.166-1.38l2.9-1.67a2.622,2.622,0,0,1,2.346-.11l2.526,1.449c.593.345.524.952-.166,1.38l-2.912,1.67A2.567,2.567,0,0,1,206,287.951Z" transform="translate(-118.855 -145.375)"/><path class="cf" d="M210.324,290.443l-2.512-1.449c-.607-.345-.524-.952.166-1.38l2.9-1.684a2.622,2.622,0,0,1,2.346-.1l2.526,1.38c.593.345.524.952-.179,1.38l-2.9,1.684a2.622,2.622,0,0,1-2.346.166Z" transform="translate(-117.215 -144.431)"/><path class="cf" d="M214.7,292.932l-2.526-1.38c-.593-.359-.524-.966.166-1.38l2.912-1.67a2.622,2.622,0,0,1,2.346-.11l2.512,1.449c.593.359.524.966-.166,1.38l-2.9,1.67a2.581,2.581,0,0,1-2.346.041Z" transform="translate(-115.556 -143.456)"/><path class="cf" d="M219,295.443l-2.512-1.449c-.593-.345-.524-.952.166-1.38l2.912-1.684a2.622,2.622,0,0,1,2.346-.1l2.512,1.38c.593.345.524.952-.166,1.38l-2.9,1.684a2.65,2.65,0,0,1-2.36.166Z" transform="translate(-113.914 -142.53)"/><path class="cf" d="M223.323,297.933l-2.512-1.449c-.593-.345-.524-.952.166-1.38l2.9-1.684a2.622,2.622,0,0,1,2.346-.1l2.526,1.449c.593.345.524.952-.166,1.38l-2.912,1.684a2.622,2.622,0,0,1-2.346.1Z" transform="translate(-112.272 -141.584)"/><path class="cg" d="M219.772,233.073l7.535-10.641a23.89,23.89,0,0,0-7.245-7.3c-7.37-4.416-13.47,0-13.621,9.95s5.672,21.529,13.042,25.932,13.3,0,13.608-9.661Z" transform="translate(-117.582 -171.866)"/><path class="cg" d="M226.788,219.19l-7.508,10.668,13.345,8.281v-.359a34.309,34.309,0,0,0-5.838-18.59Z" transform="translate(-112.701 -169.673)"/><path class="cg" d="M237.73,261.477V226.05l5.81,3.643v35.344Z" transform="translate(-105.688 -167.066)"/><path class="cg" d="M243.26,261.887V237.28l5.81,3.643v24.524Z" transform="translate(-103.587 -162.797)"/><path class="cg" d="M232.04,252.034V238.04l5.81,3.643v13.911Z" transform="translate(-107.851 -162.508)"/><g transform="translate(107.007 168.429)"><path class="ch" d="M219.59,313.146a3.05,3.05,0,0,1,1.38-2.526L230,305.515a.952.952,0,0,1,.911-.083h0l.1.069,4.5,2.581-10.668,8.791-4.554-2.622A.677.677,0,0,1,220,314.1h0a1.27,1.27,0,0,1-.414-.952Z" transform="translate(-219.59 -305.353)"/><path class="ci" d="M224.382,316.012l9.04-5.106a3.091,3.091,0,0,0,1.38-2.526h0c0-.966-.662-1.38-1.38-.966l-9.04,5.093a3.078,3.078,0,0,0-1.38,2.539h0C222.919,316.012,223.554,316.44,224.382,316.012Z" transform="translate(-218.296 -304.63)"/></g></g></g></svg>