<svg xmlns="http://www.w3.org/2000/svg" xmlns:xlink="http://www.w3.org/1999/xlink" width="39.085" height="32" viewBox="0 0 39.085 32"><defs><style>.a{fill:url(#a);}</style><linearGradient id="a" x1="0.079" y1="0.821" x2="0.435" y2="1.341" gradientUnits="objectBoundingBox"><stop offset="0" stop-color="#5b0998"/><stop offset="1" stop-color="#0bcdd0"/></linearGradient></defs><path class="a" d="M38.2,50.1a14.827,14.827,0,0,1-1.89.689,8.357,8.357,0,0,0,1.7-2.992.63.63,0,0,0-.922-.734,14.876,14.876,0,0,1-4.4,1.738,8.394,8.394,0,0,0-14.263,6A8.558,8.558,0,0,0,18.5,55.88,21.481,21.481,0,0,1,3.752,48.059a.631.631,0,0,0-1.033.081,8.4,8.4,0,0,0,.86,9.658,7.109,7.109,0,0,1-1.123-.5.63.63,0,0,0-.936.537c0,.037,0,.074,0,.112A8.42,8.42,0,0,0,5.626,65.16q-.32-.032-.638-.093a.63.63,0,0,0-.718.812A8.388,8.388,0,0,0,10.416,71.5a14.844,14.844,0,0,1-7.934,2.265,15.174,15.174,0,0,1-1.777-.1A.63.63,0,0,0,.29,74.82a22.627,22.627,0,0,0,12.236,3.586A21.768,21.768,0,0,0,29.39,71a23.479,23.479,0,0,0,5.845-15.3c0-.23,0-.463-.011-.694a16.31,16.31,0,0,0,3.754-3.976A.63.63,0,0,0,38.2,50.1Z" transform="translate(0 -46.406)"/></svg>